<svg width="49" height="51" viewBox="0 0 49 51" fill="none" xmlns="http://www.w3.org/2000/svg">
<g clip-path="url(#clip0_8_2)">
<path d="M14.9108 8.415H22.2109C18.5608 10.2255 16.7229 13.821 16.7229 18.615V19.8135H10.2512V26.877H16.7229V37.383C16.7229 39.3975 16.2051 40.953 15.2214 42.0495C14.2377 43.146 12.8657 43.6815 11.1313 43.656C10.1994 43.656 9.26747 43.4775 8.38732 43.146C7.50717 42.8145 6.65291 42.381 5.85042 41.8455L1.83796 47.481C3.41706 48.8835 5.30679 49.878 7.35185 50.3625C9.06038 50.7705 10.8207 51 12.5551 51C14.0824 50.9745 15.5838 50.745 17.0335 50.2605C18.5608 49.776 19.9587 48.96 21.1236 47.9145C22.418 46.7415 23.4275 45.3135 24.1265 43.7325C24.9031 42.024 25.2655 39.933 25.2655 37.485V26.8515H32.3067L35.2837 19.788H25.2655V18.5895C25.2655 11.3985 29.2262 8.3895 35.3096 8.3895H43.2309V0L14.9108 0.0255C10.3288 0.0255 6.44581 1.3005 3.7277 4.0035C1.00958 6.6555 0 10.149 0 13.515H8.51675C8.51675 11.781 9.03449 10.6335 9.73343 9.945C10.4583 9.231 11.9079 8.415 14.9108 8.415Z" fill="black"/>
<path d="M43.3937 49.827C46.4224 49.827 48.8817 47.4045 48.8817 44.421C48.8817 41.4375 46.4224 39.015 43.3937 39.015C40.3649 39.015 37.9057 41.4375 37.9057 44.421C37.9057 47.4045 40.3649 49.827 43.3937 49.827Z" fill="#EE2323"/>
</g>
<defs>
<clipPath id="clip0_8_2">
<rect width="49" height="51" fill="white"/>
</clipPath>
</defs>
</svg>
