<svg width="501" height="75" viewBox="0 0 501 75" fill="none" xmlns="http://www.w3.org/2000/svg">
<g clip-path="url(#clip0_343_8)">
<path d="M104.827 39.5206V52.5102C104.827 55.015 104.987 56.5881 105.306 57.2296C105.641 57.8834 106.209 58.4064 107.023 58.7905C107.849 59.1787 109.379 59.3748 111.624 59.3748V60.6333H86.5356V59.3748C88.8052 59.3748 90.3346 59.1787 91.1483 58.7701C91.9499 58.3737 92.5183 57.8589 92.8536 57.2174C93.1726 56.5759 93.332 55.015 93.332 52.5102V22.4571C93.332 19.9482 93.1726 18.3751 92.8536 17.7213C92.5183 17.0716 91.9499 16.5568 91.1238 16.1727C90.31 15.7764 88.7806 15.5884 86.5356 15.5884V14.3176H109.305C115.239 14.3176 119.565 14.714 122.317 15.4862C125.053 16.2544 127.298 17.6886 129.036 19.7725C130.762 21.8483 131.641 24.2958 131.641 27.0948C131.641 30.5108 130.332 33.3342 127.732 35.5693C126.063 36.979 123.744 38.0414 120.763 38.7401L132.541 54.4184C134.082 56.4492 135.178 57.7077 135.82 58.2103C136.818 58.9213 137.955 59.3054 139.264 59.3748V60.6333H123.834L108.045 39.5206H104.827V39.5206ZM104.827 16.8142V37.0975H106.888C110.229 37.0975 112.732 36.8197 114.396 36.2354C116.061 35.651 117.369 34.6009 118.318 33.0891C119.271 31.5731 119.749 29.6037 119.749 27.1643C119.749 23.6339 118.874 21.0351 117.124 19.3435C115.386 17.6519 112.572 16.8142 108.688 16.8142H104.827V16.8142ZM168.331 13.6761C176.137 13.3983 182.476 15.5557 187.362 20.1239C192.233 24.7044 194.674 30.429 194.674 37.3059C194.674 43.1817 192.863 48.3465 189.223 52.8126C184.402 58.7333 177.593 61.6957 168.801 61.6957C159.992 61.6957 153.171 58.8722 148.35 53.2212C144.551 48.7551 142.641 43.4636 142.641 37.3427C142.641 30.4658 145.119 24.729 150.063 20.1485C155.024 15.5557 161.101 13.3983 168.331 13.6761V13.6761ZM168.776 15.8581C164.286 15.8581 160.88 18.0278 158.537 22.3509C156.639 25.8935 155.69 31.0011 155.69 37.6451C155.69 45.5475 157.154 51.3906 160.091 55.1662C162.139 57.8139 165.014 59.1297 168.699 59.1297C171.181 59.1297 173.25 58.5576 174.914 57.4299C177.024 55.9711 178.677 53.638 179.862 50.4345C181.044 47.2392 181.637 43.0673 181.637 37.927C181.637 31.7938 181.032 27.2133 179.826 24.1814C178.615 21.1373 177.086 18.9921 175.213 17.7336C173.348 16.4873 171.205 15.8581 168.776 15.8581V15.8581ZM233.212 13.2716L233.621 28.7047H232.128C231.437 24.8352 229.724 21.7216 226.984 19.3558C224.248 16.9981 221.3 15.8213 218.118 15.8213C215.665 15.8213 213.714 16.4383 212.283 17.6886C210.839 18.9226 210.128 20.3569 210.128 21.979C210.128 22.9924 210.385 23.9117 210.892 24.7044C211.583 25.7791 212.704 26.8374 214.246 27.8752C215.378 28.6352 217.996 29.9632 222.089 31.8755C227.822 34.5437 231.683 37.0607 233.682 39.4266C235.67 41.7965 236.655 44.5015 236.655 47.5538C236.655 51.4233 235.052 54.7576 231.871 57.5443C228.677 60.331 224.616 61.7284 219.709 61.7284C218.167 61.7284 216.699 61.5772 215.329 61.2871C213.964 60.9847 212.234 60.425 210.165 59.6077C209.003 59.1542 208.054 58.9335 207.314 58.9335C206.684 58.9335 206.018 59.1542 205.327 59.6077C204.623 60.0613 204.059 60.7641 203.626 61.6957H202.297V44.2073H203.626C204.689 49.1269 206.721 52.8698 209.756 55.4563C212.778 58.0469 216.033 59.3381 219.525 59.3381C222.224 59.3381 224.371 58.6393 225.974 57.2541C227.577 55.8649 228.378 54.2468 228.378 52.404C228.378 51.3089 228.072 50.2465 227.454 49.2209C226.837 48.2076 225.913 47.2269 224.653 46.3075C223.398 45.3841 221.189 44.1869 218.008 42.7036C213.555 40.6279 210.349 38.8709 208.398 37.4121C206.439 35.9534 204.946 34.3231 203.896 32.5293C202.849 30.7314 202.317 28.7497 202.317 26.584C202.317 22.8984 203.761 19.7521 206.623 17.1493C209.498 14.5628 213.109 13.2716 217.464 13.2716C219.055 13.2716 220.596 13.4432 222.089 13.8069C223.226 14.0847 224.604 14.5873 226.219 15.331C227.847 16.0665 228.996 16.4383 229.638 16.4383C230.268 16.4383 230.758 16.2544 231.118 15.8908C231.486 15.5312 231.818 14.6568 232.128 13.2716H233.212V13.2716ZM275.516 13.2716L275.921 28.7047H274.433C273.741 24.8352 272.024 21.7216 269.288 19.3558C266.548 16.9981 263.6 15.8213 260.418 15.8213C257.965 15.8213 256.018 16.4383 254.587 17.6886C253.143 18.9226 252.428 20.3569 252.428 21.979C252.428 22.9924 252.685 23.9117 253.193 24.7044C253.884 25.7791 255.004 26.8374 256.546 27.8752C257.683 28.6352 260.296 29.9632 264.389 31.8755C270.126 34.5437 273.987 37.0607 275.982 39.4266C277.97 41.7965 278.955 44.5015 278.955 47.5538C278.955 51.4233 277.352 54.7576 274.171 57.5443C270.977 60.331 266.92 61.7284 262.009 61.7284C260.467 61.7284 258.999 61.5772 257.634 61.2871C256.264 60.9847 254.538 60.425 252.465 59.6077C251.307 59.1542 250.355 58.9335 249.614 58.9335C248.989 58.9335 248.322 59.1542 247.631 59.6077C246.928 60.0613 246.359 60.7641 245.93 61.6957H244.597V44.2073H245.93C246.989 49.1269 249.026 52.8698 252.06 55.4563C255.078 58.0469 258.337 59.3381 261.825 59.3381C264.528 59.3381 266.671 58.6393 268.278 57.2541C269.881 55.8649 270.683 54.2468 270.683 52.404C270.683 51.3089 270.372 50.2465 269.754 49.2209C269.141 48.2076 268.213 47.2269 266.957 46.3075C265.698 45.3841 263.489 44.1869 260.308 42.7036C255.855 40.6279 252.649 38.8709 250.702 37.4121C248.739 35.9534 247.247 34.3231 246.2 32.5293C245.153 30.7314 244.621 28.7497 244.621 26.584C244.621 22.8984 246.065 19.7521 248.923 17.1493C251.798 14.5628 255.413 13.2716 259.764 13.2716C261.355 13.2716 262.901 13.4432 264.389 13.8069C265.526 14.0847 266.908 14.5873 268.523 15.331C270.151 16.0665 271.296 16.4383 271.938 16.4383C272.568 16.4383 273.063 16.2544 273.418 15.8908C273.791 15.5312 274.122 14.6568 274.433 13.2716H275.516V13.2716ZM335.736 14.3176V15.5884C333.961 15.8581 332.37 16.757 330.976 18.2811C329.966 19.4252 328.461 22.0934 326.461 26.3144L309.58 61.6957H308.395L291.583 24.8801C289.563 20.4386 288.205 17.8276 287.527 17.0594C286.836 16.2789 285.539 15.7886 283.642 15.5884V14.3176H307.123V15.5884H306.338C304.215 15.5884 302.772 15.8336 301.995 16.3361C301.439 16.6712 301.169 17.1738 301.169 17.8398C301.169 18.2484 301.267 18.7347 301.451 19.2945C301.647 19.842 302.301 21.3498 303.401 23.7851L313.846 46.8306L323.529 26.3144C324.686 23.83 325.402 22.1629 325.664 21.3253C325.934 20.4835 326.056 19.7644 326.056 19.1678C326.056 18.4936 325.872 17.8848 325.476 17.3618C325.095 16.8346 324.527 16.4383 323.787 16.1727C322.752 15.7764 321.37 15.5884 319.669 15.5884V14.3176H335.736V14.3176ZM364.746 59.3748V60.6333H339.13V59.3748H340.758C342.172 59.3748 343.322 59.1297 344.184 58.6516C344.814 58.337 345.293 57.7894 345.628 57.009C345.898 56.4737 346.033 55.0395 346.033 52.7063V22.2446C346.033 19.8788 345.898 18.3996 345.628 17.803C345.37 17.2106 344.839 16.6957 344.025 16.2544C343.223 15.809 342.123 15.5884 340.758 15.5884H339.13V14.3176H364.746V15.5884H363.114C361.699 15.5884 360.55 15.8213 359.687 16.2994C359.057 16.6263 358.567 17.1615 358.207 17.942C357.949 18.4936 357.814 19.9278 357.814 22.2446V52.7063C357.814 55.0722 357.949 56.5554 358.219 57.1479C358.505 57.7445 359.045 58.2552 359.847 58.7006C360.66 59.1542 361.748 59.3748 363.114 59.3748H364.746ZM398.413 32.0512L415.642 52.4407C418.083 55.3051 420.181 57.2542 421.931 58.2798C423.215 59.003 424.56 59.3748 425.979 59.3748V60.6333H400.474V59.3748C402.09 59.2359 403.124 58.9907 403.594 58.6516C404.073 58.3124 404.31 57.8957 404.31 57.3931C404.31 56.4369 403.198 54.6309 400.977 51.9954L389.744 38.638L387.928 40.0681V52.7063C387.928 55.1212 388.079 56.6249 388.374 57.2174C388.656 57.8139 389.212 58.3124 390.026 58.7333C390.852 59.1664 392.161 59.3748 393.972 59.3748V60.6333H369.256V59.3748H370.884C372.303 59.3748 373.452 59.1297 374.315 58.6516C374.944 58.337 375.423 57.7894 375.758 57.009C376.028 56.4737 376.151 55.0395 376.151 52.7063V22.2446C376.151 19.8788 376.028 18.3996 375.758 17.803C375.497 17.2106 374.957 16.6957 374.155 16.2544C373.337 15.809 372.254 15.5884 370.884 15.5884H369.256V14.3176H393.641V15.5884C391.989 15.5884 390.717 15.809 389.854 16.2667C389.224 16.5936 388.734 17.1288 388.374 17.8725C388.079 18.4446 387.928 19.9033 387.928 22.2446V36.6562L406.109 22.7595C408.637 20.8227 409.908 19.274 409.908 18.1177C409.908 17.2433 409.389 16.5691 408.354 16.0665C407.823 15.809 406.502 15.6579 404.408 15.5884V14.3176H423.526V15.5884C421.808 15.7069 420.479 15.9847 419.502 16.4506C418.516 16.9164 416.271 18.5018 412.759 21.1863L398.413 32.0512V32.0512ZM37.5494 19.3762C31.4194 26.1387 28.7409 33.4732 28.7409 40.9098C28.7409 49.2005 32.0287 57.7118 37.5494 65.7859C43.0741 57.7118 46.3578 49.2005 46.3578 40.9098C46.3578 33.4732 43.6834 26.1387 37.5494 19.3762ZM23.2898 37.9106C23.9809 29.5587 27.6123 21.4233 34.9813 14.0112C35.8318 13.1531 36.6947 12.3073 37.5494 11.4533C38.3345 12.2337 39.1156 13.0142 39.9048 13.7946C47.4169 21.268 51.1137 29.477 51.813 37.9106C54.6142 36.6848 57.2477 35.8227 59.9917 35.2179C62.8992 34.5723 65.8926 34.2291 69.3154 34.0411C68.5138 26.6086 65.1606 19.936 60.143 14.9224C54.3647 9.14873 46.3742 5.57341 37.5494 5.57341C28.7287 5.57341 20.7381 9.14873 14.9558 14.9224C9.94222 19.936 6.58488 26.6086 5.78336 34.0411C9.21023 34.2291 12.2036 34.5723 15.1112 35.2179C17.8551 35.8227 20.4886 36.6848 23.2898 37.9106V37.9106ZM33.092 69.116C27.555 61.0787 24.0096 52.5511 23.298 44.052C19.9325 42.3849 16.98 41.3184 13.913 40.6402C11.3776 40.0763 8.7236 39.7657 5.66886 39.5941C6.18412 47.5783 9.63961 54.7616 14.9558 60.0735C19.7485 64.8624 26.0501 68.1354 33.092 69.116ZM51.8048 44.052C51.0933 52.5511 47.5478 61.0787 42.0108 69.116C49.0486 68.1354 55.3543 64.8624 60.143 60.0735C65.4632 54.7616 68.9187 47.5783 69.4339 39.5941C66.3792 39.7657 63.7252 40.0763 61.1898 40.6402C58.1228 41.3184 55.1662 42.3849 51.8048 44.052V44.052ZM37.5494 0C47.9158 0 57.2968 4.1964 64.0892 10.9834C70.8775 17.7704 75.0813 27.1438 75.0813 37.498C75.0813 47.8562 70.8775 57.2296 64.0892 64.0166C57.2968 70.7995 47.9158 75 37.5494 75C27.187 75 17.806 70.7995 11.0136 64.0166C4.22124 57.2296 0.0214844 47.8562 0.0214844 37.498C0.0214844 27.1438 4.22124 17.7704 11.0136 10.9834C17.806 4.1964 27.187 0 37.5494 0V0Z" fill="#0063B4"/>
</g>
<defs>
<clipPath id="clip0_343_8">
<rect width="426" height="75" fill="white"/>
</clipPath>
</defs>
</svg>
