<svg width="501" height="75" viewBox="0 0 501 75" fill="none" xmlns="http://www.w3.org/2000/svg">
<g clip-path="url(#clip0_337_76)">
<path d="M14.446 58H26.474V25.14H39.494V14.6H1.488V25.14H14.446V58ZM44.7737 58H56.8017V44.856H62.1337L70.8757 58H84.7017L74.3477 42.872C79.8037 40.578 83.2757 36.176 83.2757 29.48V29.356C83.2757 25.202 81.9737 21.792 79.4317 19.25C76.5177 16.336 71.9917 14.6 65.2957 14.6H44.7737V58ZM56.8017 35.432V24.954H64.7377C68.7057 24.954 71.2477 26.69 71.2477 30.162V30.286C71.2477 33.448 68.8297 35.432 64.7997 35.432H56.8017ZM111.222 58.868C124.614 58.868 134.658 48.762 134.658 36.3V36.176C134.658 23.776 124.738 13.732 111.346 13.732C97.9542 13.732 87.9102 23.838 87.9102 36.3V36.424C87.9102 48.824 97.8302 58.868 111.222 58.868ZM111.346 48.018C104.712 48.018 100.186 42.5 100.186 36.3V36.176C100.186 29.914 104.588 24.582 111.222 24.582C117.856 24.582 122.32 29.976 122.32 36.3V36.424C122.32 42.686 117.918 48.018 111.346 48.018ZM140.862 58H152.642V33.138L163.678 50.064H163.926L175.024 33.076V58H186.99V14.6H174.28L163.926 31.402L153.572 14.6H140.862V58ZM194.688 58H206.468V33.138L217.504 50.064H217.752L228.85 33.076V58H240.816V14.6H228.106L217.752 31.402L207.398 14.6H194.688V58ZM248.514 58H283.73V47.77H260.418V40.888H281.25V31.402H260.418V24.768H283.42V14.6H248.514V58ZM289.928 58H322.974V47.46H301.956V14.6H289.928V58ZM328.194 58H350.576C360.992 58 367.006 53.536 367.006 46.034V45.91C367.006 40.02 363.658 37.044 358.388 35.308C362.294 33.634 365.084 30.658 365.084 25.636V25.512C365.084 22.536 364.03 20.242 362.294 18.444C359.752 15.964 355.908 14.6 350.452 14.6H328.194V58ZM353.242 28.116C353.242 30.658 351.196 31.898 347.476 31.898H339.912V24.272H347.786C351.444 24.272 353.242 25.512 353.242 27.992V28.116ZM354.978 44.36C354.978 46.902 352.932 48.328 349.212 48.328H339.912V40.33H349.088C353.118 40.33 354.978 41.818 354.978 44.236V44.36ZM372.514 58H407.73V47.77H384.418V40.888H405.25V31.402H384.418V24.768H407.42V14.6H372.514V58ZM413.928 58H425.956V44.856H431.288L440.03 58H453.856L443.502 42.872C448.958 40.578 452.43 36.176 452.43 29.48V29.356C452.43 25.202 451.128 21.792 448.586 19.25C445.672 16.336 441.146 14.6 434.45 14.6H413.928V58ZM425.956 35.432V24.954H433.892C437.86 24.954 440.402 26.69 440.402 30.162V30.286C440.402 33.448 437.984 35.432 433.954 35.432H425.956ZM480.624 58.868C488.622 58.868 494.822 56.016 499.472 52.11V32.642H479.57V41.446H488.064V46.716C486.328 47.894 484.096 48.514 481.12 48.514C474.238 48.514 469.34 43.492 469.34 36.424V36.3C469.34 29.666 474.238 24.458 480.438 24.458C484.84 24.458 487.754 25.884 490.916 28.55L497.984 19.994C493.334 16.026 488.064 13.732 480.376 13.732C466.984 13.732 457.064 23.652 457.064 36.3V36.424C457.064 49.63 467.046 58.868 480.624 58.868Z" fill="#0163A7"/>
</g>
<defs>
<clipPath id="clip0_337_76">
<rect width="501" height="75" fill="white"/>
</clipPath>
</defs>
</svg>
