<svg width="262" height="75" viewBox="0 0 262 75" fill="none" xmlns="http://www.w3.org/2000/svg">
<path d="M261.168 52.667V39.3352H18.5113L39.3252 10.3217V0H0V12.0307H21.2611L1.48277e-05 39.3352L0 52.667H238.817L227.749 63.9403L238.817 75L261.168 52.667Z" fill="#A62C30"/>
<path d="M36.04 36.9159H48.9659L50.8273 32.0626H63.4946L65.4076 36.9159H78.5403L63.2878 0.516306H51.2926L36.04 36.9159ZM53.8778 23.4919L57.1868 14.7147L60.4958 23.4919H53.8778Z" fill="white"/>
<path d="M95.9402 37.6387C106.746 37.6387 113.933 32.7854 113.933 20.4457V0.774459H101.628V20.8071C101.628 25.1957 99.3526 26.9512 96.0436 26.9512C92.7863 26.9512 90.4596 25.0409 90.4596 20.549V0.774459H78.1542V20.7039C78.1542 32.6822 85.1859 37.6387 95.9402 37.6387Z" fill="white"/>
<path d="M117.747 36.9159H137.808C146.959 36.9159 151.716 32.6822 151.716 26.8996V26.7963C151.716 21.8398 148.769 19.4131 144.064 18.0191C147.994 16.6251 150.527 14.0952 150.527 9.75819V9.65493C150.527 7.17666 149.596 5.31795 148.304 4.02719C146.184 1.91033 143.03 0.774459 138.015 0.774459H117.747V36.9159ZM138.635 12.4946C138.635 14.1468 137.343 14.9729 134.809 14.9729H129.535V9.91308H134.757C137.343 9.91308 138.635 10.7392 138.635 12.3914V12.4946ZM139.566 25.1441C139.566 26.7447 138.222 27.7773 135.585 27.7773H129.535V22.4077H135.636C138.273 22.4077 139.566 23.4403 139.566 25.0409V25.1441Z" fill="white"/>
<path d="M154.353 36.9159H185.479V27.0028H166.245V23.0789H183.928V14.3533H166.245V10.6875H185.22V0.774459H154.353V36.9159Z" fill="white"/>
<path d="M188.738 36.9159H200.837V26.5898H203.422L210.247 36.9159H224.052L215.624 24.6278C220.019 22.511 222.759 18.8968 222.759 13.5789V13.4756C222.759 9.75819 221.674 7.12503 219.45 4.90491C216.917 2.37501 212.884 0.774459 206.421 0.774459H188.738V36.9159ZM200.837 17.9675V10.8941H206.111C208.954 10.8941 210.712 12.0299 210.712 14.3533V14.4566C210.712 16.6767 208.954 17.9675 206.059 17.9675H200.837Z" fill="white"/>
<path d="M245.191 37.6904C251.809 37.6904 257.237 35.5219 261.167 32.2691V15.5408H243.639V23.2854H249.844V26.8996C248.861 27.4675 247.776 27.7256 245.708 27.7256C240.641 27.7256 237.073 24.2664 237.073 19.1033V19.0001C237.073 14.0952 240.434 10.481 245.191 10.481C248.241 10.481 250.775 11.6169 253.205 13.6305L259.978 5.47285C256.048 2.01359 251.085 0 244.829 0C233.402 0 224.871 8.05438 224.871 18.8452V18.9484C224.871 30.1523 233.867 37.6904 245.191 37.6904Z" fill="white"/>
</svg>
