<svg width="434" height="125" viewBox="0 0 434 125" fill="none" xmlns="http://www.w3.org/2000/svg">
<path d="M434 87.7832V65.5663H30.7615L65.3494 17.2168V0.0161812H0V20.0647H35.331L2.46403e-05 65.5663L0 87.7832H396.859L378.466 106.57L396.859 125L434 87.7832Z" fill="#BC3331"/>
<path d="M59.5224 61.6199H81.0234L84.1195 53.5188H105.191L108.373 61.6199H130.218L104.847 0.861816H84.8936L59.5224 61.6199ZM89.1938 39.2127L94.698 24.5618L100.202 39.2127H89.1938Z" fill="white"/>
<path d="M159.161 62.8264C177.136 62.8264 189.09 54.7254 189.09 34.1279V1.29272H168.621V34.7312C168.621 42.0567 164.837 44.9868 159.333 44.9868C153.915 44.9868 150.044 41.7981 150.044 34.3003V1.29272H129.575V34.5589C129.575 54.553 141.272 62.8264 159.161 62.8264Z" fill="white"/>
<path d="M195.434 61.6199H228.804C244.027 61.6199 251.939 54.553 251.939 44.9007V44.7283C251.939 36.4548 247.037 32.4043 239.21 30.0774C245.747 27.7505 249.961 23.5276 249.961 16.2883V16.116C249.961 11.9793 248.413 8.87671 246.263 6.72217C242.736 3.18872 237.49 1.29272 229.148 1.29272H195.434V61.6199ZM230.18 20.856C230.18 23.6138 228.03 24.9927 223.816 24.9927H215.043V16.5469H223.73C228.03 16.5469 230.18 17.9258 230.18 20.6836V20.856ZM231.728 41.9705C231.728 44.6421 229.492 46.3657 225.106 46.3657H215.043V37.4028H225.192C229.578 37.4028 231.728 39.1265 231.728 41.7981V41.9705Z" fill="white"/>
<path d="M256.326 61.6199H308.1V45.073H276.107V38.5232H305.52V23.9585H276.107V17.8396H307.67V1.29272H256.326V61.6199Z" fill="white"/>
<path d="M313.522 61.6199H333.647V44.3836H337.947L349.299 61.6199H372.263L358.244 41.1087C365.554 37.5752 370.112 31.5425 370.112 22.6658V22.4934C370.112 16.2883 368.306 11.8931 364.608 8.18726C360.394 3.96436 353.686 1.29272 342.935 1.29272H313.522V61.6199ZM333.647 29.9912V18.1843H342.419C347.149 18.1843 350.074 20.0803 350.074 23.9585V24.1309C350.074 27.8367 347.149 29.9912 342.333 29.9912H333.647Z" fill="white"/>
<path d="M407.425 62.9126C418.433 62.9126 427.464 59.293 434 53.8635V25.9407H404.845V38.8679H415.165V44.9007C413.531 45.8487 411.725 46.2796 408.285 46.2796C399.856 46.2796 393.922 40.5054 393.922 31.8872V31.7149C393.922 23.5276 399.512 17.4949 407.425 17.4949C412.499 17.4949 416.713 19.3909 420.755 22.752L432.022 9.13526C425.486 3.36108 417.229 0 406.823 0C387.816 0 373.625 13.4443 373.625 31.4563V31.6287C373.625 50.3301 388.59 62.9126 407.425 62.9126Z" fill="white"/>
</svg>
