<svg width="285" height="65" viewBox="0 0 285 65" fill="none" xmlns="http://www.w3.org/2000/svg">
<path d="M210.068 56.2355C209.834 56.9252 209.394 57.5265 208.807 57.9583C208.221 58.3902 207.516 58.6318 206.788 58.6507C206.338 58.6203 205.899 58.497 205.5 58.2884C204.805 57.957 204.133 57.5805 203.487 57.1613L201.474 55.7524C202.723 53.8852 203.705 51.8529 204.393 49.7143L204.775 48.3657C205.047 47.1059 205.667 45.9481 206.566 45.0246C207.582 44.372 208.785 44.0746 209.988 44.1793H212.665V39.2884H193.423V44.2799H196.14C198.032 44.2799 199.2 44.5617 199.643 45.1252C200.085 45.6888 199.985 46.7958 199.381 48.4664C198.887 49.8895 198.21 51.2426 197.368 52.4918C196.181 51.4855 195.134 50.4791 194.208 49.5734C191.452 46.5964 188.998 43.3535 186.882 39.8922L186.58 39.389C188.526 38.5744 190.36 37.5123 192.034 36.229C193.14 35.4941 194.062 34.5146 194.729 33.3664C195.395 32.2181 195.789 30.9319 195.879 29.6072C195.932 28.3545 195.701 27.106 195.203 25.9556C194.704 24.8051 193.951 23.7827 193.001 22.9652C190.808 21.2347 188.061 20.3619 185.272 20.5097C182.098 20.3357 178.977 21.3714 176.537 23.408C175.461 24.403 174.615 25.621 174.059 26.9768C173.502 28.3327 173.249 29.7936 173.316 31.2576C173.436 33.2146 173.993 35.1198 174.946 36.8328C175.309 37.5776 175.772 38.4229 176.335 39.389C173.416 40.4733 170.731 42.1061 168.425 44.1994C167.255 45.1692 166.302 46.3749 165.629 47.7379C164.956 49.1009 164.579 50.5905 164.521 52.1094C164.471 53.9531 164.887 55.7795 165.732 57.4192C166.576 59.0589 167.821 60.4587 169.351 61.4887C173.232 63.9903 177.802 65.2084 182.414 64.9707C185.731 64.9689 189.016 64.3335 192.095 63.0988C193.313 62.6238 194.491 62.0517 195.617 61.388L198.113 63.0183C199.181 63.6523 200.333 64.1333 201.535 64.4474C202.767 64.7882 204.04 64.9642 205.318 64.9707C206.943 65.0469 208.561 64.7082 210.019 63.9863C211.477 63.2644 212.727 62.1832 213.651 60.8446C215.743 57.5336 216.632 53.6032 216.167 49.7143H210.914C211.163 51.9244 210.873 54.1619 210.068 56.2355V56.2355ZM182.756 26.9101C183.096 26.564 183.51 26.2978 183.966 26.1307C184.422 25.9637 184.909 25.8999 185.393 25.944C185.827 25.9089 186.263 25.9741 186.668 26.1346C187.073 26.2952 187.435 26.5467 187.727 26.8699C188.294 27.7325 188.556 28.7597 188.472 29.7883C188.46 30.6857 188.217 31.5649 187.765 32.3406C187.314 33.1164 186.67 33.7624 185.896 34.2163L184.044 35.3233L183.118 33.5521C182.472 32.4544 182.061 31.2344 181.911 29.9695C181.812 28.8809 182.113 27.7937 182.756 26.9101V26.9101ZM184.769 58.691C182.114 58.8665 179.472 58.1971 177.221 56.7789C176.362 56.1361 175.675 55.2905 175.222 54.3177C174.769 53.3449 174.563 52.2751 174.624 51.2037C174.574 49.2132 175.295 47.2802 176.637 45.8096C177.371 45.0174 178.219 44.339 179.153 43.7969L180.804 46.2725C183.024 49.6658 185.587 52.8222 188.452 55.692L190.726 57.7047C188.819 58.3741 186.81 58.7078 184.789 58.691H184.769Z" fill="#084781"/>
<path d="M250.403 0H216.871V25.8031H224.922V20.3687C225.224 15.2967 226.21 11.9354 227.901 10.3051C229.591 8.67482 232.812 7.78923 237.562 7.78923H242.533V50.318C242.648 51.2101 242.585 52.1162 242.346 52.9835C242.108 53.8508 241.699 54.662 241.144 55.3699C239.469 56.4135 237.49 56.8603 235.529 56.6379H231.021V64.1051H270.208V56.5977H265.619C263.613 56.8194 261.59 56.3738 259.863 55.3297C259.29 54.6305 258.866 53.8218 258.617 52.9531C258.368 52.0845 258.299 51.1741 258.414 50.2777V7.72884H263.385C268.155 7.72884 271.436 8.57419 273.046 10.2447C274.656 11.9153 275.723 15.2765 276.025 20.3083V25.7427H284.076V0H250.403Z" fill="#084781"/>
<path d="M82.5205 0V7.44707H86.5459C88.3604 7.23031 90.1918 7.681 91.6985 8.71508C92.7261 10.1791 93.1776 11.9707 92.9665 13.7469V50.318C93.1757 52.094 92.7244 53.885 91.6985 55.3498C90.2275 56.3788 88.4292 56.8301 86.6466 56.6178H82.6211V64.085H150.571V39.087H142.5V42.5086C142.178 48.0637 140.849 51.7269 138.575 53.5786C136.3 55.4303 131.913 56.3562 125.432 56.3562H108.927V35.8465H115.63C116.667 35.716 117.721 35.83 118.706 36.1795C119.692 36.529 120.582 37.1043 121.306 37.8593C122.64 40.4076 123.299 43.2559 123.218 46.1315H131.43V18.1145H123.037C123.118 20.9171 122.465 23.6922 121.145 26.1654C120.421 26.9149 119.534 27.4867 118.553 27.8359C117.572 28.1851 116.523 28.3022 115.489 28.1781H108.927V7.72884H127.968C133.536 7.72884 137.287 8.39975 139.219 9.74156C141.151 11.0834 142.245 13.8743 142.5 18.1145V25.159H150.711V0H82.5205Z" fill="#084781"/>
<path d="M69.3583 55.6517C68.3586 54.5595 67.5977 53.2707 67.1242 51.8678L46.0108 0H30.8952L8.55406 52.1898C8.06638 53.5418 7.24204 54.7472 6.15892 55.692C5.07165 56.3733 3.79563 56.6905 2.5159 56.5977H0V64.0649H29.2247V56.5977H24.4143C22.4512 56.8053 20.4678 56.5002 18.6579 55.7121C17.8931 55.1083 17.8931 53.9208 18.6579 52.1496L21.7978 44.2798H46.4737L49.4928 52.1898C50.1771 53.9811 50.157 55.1485 49.4928 55.7523C47.7448 56.5334 45.8215 56.8389 43.9175 56.6379H39.087V64.1051H74.6719V56.5977H72.4579C71.3438 56.6717 70.2412 56.3352 69.3583 55.6517ZM25.0785 36.5107L34.6389 13.3645L43.6156 36.5107H25.0785Z" fill="#084781"/>
</svg>
