<svg width="667" height="65" viewBox="0 0 667 65" fill="none" xmlns="http://www.w3.org/2000/svg">
<path d="M0 65V0H13.6821L61.5692 46.1842V0H76.9615V65H61.5692L13.6821 18.8158V65H0Z" fill="#3763D3"/>
<path fill-rule="evenodd" clip-rule="evenodd" d="M167.605 65V0H225.754C247.987 0 247.987 34.2105 225.754 34.2105C229.858 34.2105 232.025 36.4912 232.595 37.6316L244.567 65H229.174L220.623 44.4737C219.255 39 210.932 37.6316 206.941 37.6316H182.997V65H167.605ZM220.623 11.9737H182.997V25.6579H220.623C229.174 25.6579 229.174 11.9737 220.623 11.9737Z" fill="#3763D3"/>
<path fill-rule="evenodd" clip-rule="evenodd" d="M106.036 65H136.821C150.503 65 160.764 51.3158 160.764 37.6316V25.6579C160.764 10.2632 143.662 0 136.821 0H106.036C99.1949 0 82.0923 10.2632 82.0923 25.6579V37.6316C82.0923 51.3158 92.3539 65 106.036 65ZM131.467 54.7368H111.39C102.467 54.7368 95.7744 45.374 95.7744 36.0111V27.8186C95.7744 17.2853 106.928 10.2632 111.39 10.2632H131.467C135.928 10.2632 147.082 17.2853 147.082 27.8186V36.0111C147.082 45.374 140.39 54.7368 131.467 54.7368Z" fill="#3763D3"/>
<path fill-rule="evenodd" clip-rule="evenodd" d="M254.828 65V0H304.426C311.267 0 328.369 10.2632 328.369 23.9474V44.4737C328.369 58.1579 311.267 65 304.426 65H254.828ZM268.51 13.6842V53.0263H301.005C307.846 53.0263 314.687 44.4737 314.687 41.0526V27.3684C314.687 23.9474 307.846 13.6842 301.005 13.6842H268.51Z" fill="#3763D3"/>
<path fill-rule="evenodd" clip-rule="evenodd" d="M338.631 65V0H396.78C417.303 0 415.592 32.5 401.91 32.5C424.144 39.3421 410.462 65 400.2 65H338.631ZM389.938 11.9737H352.313V25.6579H389.938C400.2 25.6579 400.2 11.9737 389.938 11.9737ZM389.938 37.6316H352.313V53.0263H389.938C400.2 53.0263 400.2 37.6316 389.938 37.6316Z" fill="#3763D3"/>
<path fill-rule="evenodd" clip-rule="evenodd" d="M507.946 65V0H566.095C588.328 0 588.328 34.2105 566.095 34.2105C570.2 34.2105 572.366 36.4912 572.936 37.6316L584.908 65H569.515L560.964 44.4737C559.596 39 551.273 37.6316 547.282 37.6316H523.339V65H507.946ZM560.964 11.9737H523.339V25.6579H560.964C569.515 25.6579 569.515 11.9737 560.964 11.9737Z" fill="#3763D3"/>
<path d="M424.144 0H495.974V13.6842H424.144V0Z" fill="#3763D3"/>
<path d="M424.144 25.6579H489.133V39.3421H424.144V25.6579Z" fill="#3763D3"/>
<path d="M424.144 51.3158H495.974V65H424.144V51.3158Z" fill="#3763D3"/>
<path d="M667 0H615.692C607.141 0 591.749 10.2632 591.749 23.9474V44.4737C591.749 54.7368 602.01 65 615.692 65H667V25.6579H631.085V37.6316H651.608V53.0263H617.403C608.851 53.0263 605.431 46.1842 605.431 37.6316V25.6579C605.431 20.5263 612.272 13.6842 615.692 13.6842H667V0Z" fill="#3763D3"/>
</svg>
