<svg width="51" height="51" viewBox="0 0 51 51" fill="none" xmlns="http://www.w3.org/2000/svg">
<path d="M45.6787 9.90852C46.89 11.4747 47.9155 13.1762 48.7344 14.9788L25.5062 32.1023L15.7985 26.0167V18.6955L25.5062 24.781L45.6787 9.90852Z" fill="black"/>
<path d="M5.89113 25.5C5.89113 25.1715 5.89914 24.8451 5.91516 24.5207L0.0320405 24.2324C0.0120163 24.6529 7.10948e-06 25.0774 7.10948e-06 25.5059C-0.002496 28.8538 0.655995 32.1692 1.93772 35.2618C3.21944 38.3547 5.09916 41.1639 7.46904 43.5284L11.6421 39.3572C9.81783 37.5403 8.37065 35.3807 7.3837 33.0026C6.39675 30.6245 5.88952 28.0747 5.89113 25.5Z" fill="black"/>
<path d="M25.5008 5.88984C25.8292 5.88984 26.1555 5.90186 26.4799 5.91788L26.7743 0.0325295C26.3525 0.0125045 25.9279 0.00249323 25.5008 0.00249323C22.1514 -0.00159139 18.8345 0.655976 15.74 1.93743C12.6456 3.2189 9.83477 5.09901 7.46895 7.46983L11.642 11.643C13.459 9.81812 15.6187 8.37035 17.9971 7.38301C20.3755 6.39568 22.9256 5.88822 25.5008 5.88984Z" fill="black"/>
<path d="M25.5008 45.1106C25.1725 45.1106 24.846 45.1106 24.5197 45.0845L24.2254 50.9679C24.6485 50.9892 25.0737 51 25.5008 51C28.8488 51.0034 32.1642 50.3454 35.257 49.0636C38.3498 47.7818 41.1588 45.9014 43.5228 43.5306L39.3577 39.3594C37.5404 41.1834 35.3809 42.6303 33.003 43.6173C30.625 44.6043 28.0755 45.1118 25.5008 45.1106Z" fill="black"/>
<path d="M36.5544 9.31167L41.5124 5.6571C36.9808 1.98744 31.3241 -0.0101866 25.4929 3.90637e-05V5.88939C29.4415 5.88449 33.2984 7.07782 36.5544 9.31167Z" fill="black"/>
<path d="M50.9999 25.5C51.0031 23.9679 50.8691 22.4385 50.5994 20.9303L45.1108 24.9753C45.1108 25.1496 45.1108 25.3238 45.1108 25.5C45.1122 28.24 44.5379 30.9497 43.4251 33.4535C42.3123 35.9572 40.6857 38.1992 38.6509 40.0341L42.6098 44.4097C45.2551 42.0215 47.369 39.104 48.8143 35.8465C50.2598 32.5889 51.0044 29.0639 50.9999 25.5Z" fill="black"/>
<path d="M25.5008 45.1106C22.7607 45.1115 20.0511 44.5369 17.5471 43.4241C15.0432 42.3113 12.8009 40.6849 10.9654 38.6505L6.59209 42.6074C8.97989 45.2532 11.8971 47.3675 15.1546 48.8134C18.4121 50.259 21.9369 51.0042 25.5008 51V45.1106Z" fill="black"/>
<path d="M12.351 10.9657L8.39417 6.59025C5.74811 8.97799 3.63346 11.8953 2.18737 15.1529C0.741287 18.4104 -0.00394252 21.9356 1.56853e-05 25.4998L5.89113 25.5C5.88991 22.7602 6.46435 20.0503 7.57715 17.5465C8.68997 15.0428 10.3164 12.8008 12.351 10.9657Z" fill="black"/>
</svg>
