<svg width="323" height="39" viewBox="0 0 323 39" fill="none" xmlns="http://www.w3.org/2000/svg">
<path d="M68.6996 9.89997L74.5996 23.8H62.8996L68.6996 9.89997ZM77.6996 31.2L80.4996 37.7H92.0996L75.5996 1.19998H61.9996L45.3996 37.8H57.0996L59.7996 31.3H77.6996V31.2ZM210.2 9.89997L216.1 23.8H204.4L210.2 9.89997ZM219.2 31.2L222 37.7H233.6L217.1 1.19998H203.5L186.9 37.8H198.6L201.3 31.3H219.2V31.2ZM319 23V16.3H297V9.59998H321.6V1.19998H286.4V37.8H322.4V29H297V23H319ZM22.1996 0.599976C6.6996 0.599976 0.0996094 6.29998 0.0996094 19.5C0.0996094 32.8 6.6996 38.4 22.1996 38.4C36.2996 38.4 42.8996 33.9 44.0996 23.3H32.5996C31.3996 27.7 27.9996 29.7 21.7996 29.7C13.3996 29.7 10.5996 27.1 10.5996 19.4C10.5996 11.8 13.4996 9.09998 21.7996 9.09998C27.6996 9.09998 31.0996 11 32.3996 15H43.9996C42.6996 4.89997 36.1996 0.599976 22.1996 0.599976ZM108 9.69998H118.1C121.5 9.69998 125 10.3 125 14.4C125 18.5 121.5 19.1 118.1 19.1H108V9.69998ZM125.9 37.8H138.7L127.1 24.3L128.3 24C133.7 22.4 136.1 19.1 136.1 13.2C136.1 5.09998 130.4 1.19998 118.7 1.19998H96.9996V37.8H108V26.6H117.4L125.9 37.8ZM257.9 29.1H249.1V9.89997H257.9C265.9 9.89997 268.9 12.6 268.9 19.5C268.9 26.3 265.6 29.1 257.9 29.1ZM257.5 1.19998H238.4V37.8H257.5C273.3 37.8 280.1 32.3 280.1 19.5C280.1 6.69998 273.4 1.19998 257.5 1.19998ZM164.3 0.599976C148.8 0.599976 142.2 6.29998 142.2 19.5C142.2 32.8 148.8 38.4 164.3 38.4C178.4 38.4 185 33.9 186.2 23.3H174.7C173.5 27.7 170.1 29.7 163.9 29.7C155.5 29.7 152.7 27.1 152.7 19.4C152.7 11.8 155.6 9.09998 163.9 9.09998C169.8 9.09998 173.2 11 174.5 15H186.1C184.8 4.89997 178.3 0.599976 164.3 0.599976Z" fill="black"/>
</svg>
