<svg width="182" height="61" viewBox="0 0 182 61" fill="none" xmlns="http://www.w3.org/2000/svg">
<path d="M17.4811 11.4209H26.8813C31.4165 11.4209 34.2201 13.4975 34.2201 17.045C34.2201 19.4677 32.9832 20.7656 31.334 21.8904C33.2306 22.6691 35.1271 24.4862 35.1271 27.5145C35.1271 31.9273 31.499 34.4365 27.2111 34.4365H17.4811V11.4209ZM22.511 20.0734H26.7164C28.448 20.0734 29.4375 19.2081 29.4375 17.7372C29.4375 16.3528 28.5305 15.4876 26.7164 15.4876H22.511V20.0734ZM22.511 30.0237H26.9638C29.1901 30.0237 30.1796 28.8989 30.1796 27.2549C30.1796 25.611 29.2726 24.3996 26.9638 24.3996H22.511V30.0237Z" fill="black"/>
<path d="M48.7327 23.8809C42.0536 23.8809 37.1886 18.6028 37.1886 11.9404C37.1886 5.27802 42.0536 0 48.7327 0C55.4119 0 60.2769 5.27802 60.2769 11.9404C60.2769 18.5163 55.4119 23.8809 48.7327 23.8809ZM55.2469 11.8539C55.2469 7.44113 52.2785 4.84538 48.8152 4.84538C45.2695 4.84538 42.3835 7.44113 42.3835 11.8539C42.3835 16.2667 45.352 18.8624 48.8152 18.8624C52.2785 18.9489 55.2469 16.2667 55.2469 11.8539Z" fill="black"/>
<path d="M48.7326 25.4385C43.043 25.4385 38.6727 29.2456 37.5183 34.5236H42.7956C43.7851 31.8413 46.094 30.3704 48.7326 30.3704C51.3713 30.3704 53.6801 31.8413 54.6696 34.5236H59.947C58.7925 29.3321 54.4223 25.4385 48.7326 25.4385Z" fill="black"/>
<path d="M102.99 34.8692C97.1356 34.8692 92.6829 30.889 91.6934 25.4379H90.1267V34.4365H85.0143V11.4209H90.1267V20.506H91.6934C92.6829 15.0549 97.1356 10.9883 102.99 10.9883C109.669 10.9883 114.534 16.2663 114.534 22.9287C114.534 29.5911 109.669 34.8692 102.99 34.8692ZM109.422 22.9287C109.422 18.5159 106.453 15.9202 102.99 15.9202C99.4445 15.9202 96.5584 18.5159 96.5584 22.9287C96.5584 27.3415 99.5269 29.9372 102.99 29.9372C106.536 29.9372 109.422 27.3415 109.422 22.9287Z" fill="black"/>
<path d="M160.299 34.4365H155.351V19.4677C155.269 19.7273 155.021 20.1599 154.856 20.5925C154.692 20.8521 154.609 21.1117 154.444 21.2847L146.446 34.4365H141.333V11.4209H146.281V26.3032C146.363 26.0436 146.611 25.611 146.776 25.1783C146.94 24.9188 147.023 24.6592 147.188 24.4862L155.186 11.4209H160.299V34.4365Z" fill="black"/>
<path d="M168.792 34.4365H163.349L168.462 24.9188C165.576 23.6209 163.679 21.6308 163.679 18.1698C163.679 13.8436 166.483 11.4209 171.76 11.4209H181.49V34.4365H176.378V25.3514H173.657L168.792 34.4365ZM176.378 15.7471H171.43C169.451 15.7471 168.627 16.9585 168.627 18.3429C168.627 19.8138 169.451 20.9386 171.43 20.9386H176.378V15.7471Z" fill="black"/>
<path d="M136.221 34.6096L138.777 29.7642H135.561V11.4209H130.449V29.7642H122.698V11.4209H117.668V34.4365L136.221 34.6096Z" fill="black"/>
<path d="M66.4611 11.4209L64.5646 28.2932C64.3997 29.4181 64.0698 29.6777 63.1628 29.6777C62.668 29.6777 62.0908 29.6777 61.761 29.6777V29.7642V34.6096C62.5031 34.6096 63.2453 34.6096 64.1523 34.6096C67.5331 34.6096 68.8524 32.7925 69.2647 29.5046L70.7489 15.9202H76.2736V34.4365H81.1387V11.4209H66.4611Z" fill="black"/>
<path d="M2.80333 10.9023C1.81383 10.9023 0.906801 10.9889 0.0822191 11.2485V16.4399C0.906801 16.0938 1.81383 15.8343 2.80333 15.8343C5.60691 15.8343 8.08066 17.5648 8.9877 20.5066H2.14367V24.9194H8.90526C8.16313 28.0343 5.60693 29.8513 2.72089 29.8513C1.73139 29.8513 0.824338 29.6783 -0.000244141 29.2456V34.4371C0.906796 34.6102 1.81385 34.7832 2.72089 34.7832C9.40001 34.7832 14.265 29.5052 14.265 22.8428C14.3475 16.1804 9.48245 10.9023 2.80333 10.9023Z" fill="black"/>
<path d="M40.9816 43.7812V48.4536H40.3219V46.377H37.6008V48.4536H36.9412V43.7812H37.6008V45.7713H40.3219V43.7812H40.9816Z" fill="black"/>
<path d="M46.5888 46.2911H42.7133C42.7957 47.2428 43.4554 47.8485 44.3624 47.8485C45.0221 47.8485 45.5168 47.5889 45.7642 47.0698H46.5063C46.094 48.1081 45.3519 48.5407 44.3624 48.5407C43.0431 48.5407 42.0536 47.5889 42.0536 46.118C42.0536 44.6471 43.0431 43.6953 44.3624 43.6953C45.6818 43.6953 46.5888 44.7336 46.5888 46.2911ZM42.7957 45.6854H45.8467C45.6818 44.9067 45.1046 44.3875 44.3624 44.3875C43.5379 44.301 42.8782 44.9067 42.7957 45.6854Z" fill="black"/>
<path d="M50.4643 44.3869H48.2379V48.4536H47.5782V43.7812H50.4643V44.3869Z" fill="black"/>
<path d="M55.5766 46.118C55.5766 47.5024 54.5871 48.5407 53.2678 48.5407C51.9485 48.5407 50.959 47.5024 50.959 46.118C50.959 44.7336 52.0309 43.6953 53.2678 43.6953C54.5871 43.6953 55.5766 44.6471 55.5766 46.118ZM51.6186 46.118C51.6186 47.1563 52.3608 47.8485 53.2678 47.8485C54.1748 47.8485 54.917 47.0698 54.917 46.118C54.917 45.0797 54.1748 44.3875 53.2678 44.3875C52.3608 44.301 51.6186 45.0797 51.6186 46.118Z" fill="black"/>
<path d="M56.4011 46.118C56.4011 44.7336 57.3906 43.6953 58.71 43.6953C59.7819 43.6953 60.689 44.3875 60.8539 45.4258H60.1118C59.8644 44.7336 59.3696 44.3875 58.6275 44.3875C57.7205 44.3875 56.9783 45.1663 56.9783 46.2046C56.9783 47.2429 57.638 48.0216 58.6275 48.0216C59.2872 48.0216 59.8644 47.5889 60.1118 46.9833H60.8539C60.6065 48.1081 59.6995 48.7138 58.71 48.7138C57.4731 48.5407 56.4011 47.5024 56.4011 46.118Z" fill="black"/>
<path d="M65.719 43.7812L62.668 50.6167H61.9259L63.0803 47.9345L61.2662 43.7812H62.0084L63.4926 47.1557L64.9768 43.7812H65.719Z" fill="black"/>
<path d="M70.9964 47.762V49.6655H70.3367V48.3677H69.5121H66.1314V49.6655H65.4717V47.762H66.2138C66.4612 47.5889 66.6261 47.1563 66.791 46.2911L67.2033 43.6953H70.2543V47.762H70.9964ZM69.5121 47.762V44.3875H67.6981L67.3682 46.2911C67.2858 47.0698 67.1208 47.5024 66.8735 47.762H69.5121Z" fill="black"/>
<path d="M75.9438 43.7818V48.4542H75.2842V47.5024C74.9543 48.1081 74.2947 48.5407 73.5525 48.5407C72.3157 48.5407 71.4911 47.5024 71.4911 46.118C71.4911 44.6471 72.3981 43.6953 73.5525 43.6953C74.2947 43.6953 74.9543 44.1279 75.2842 44.7336V43.7818H75.9438ZM75.2842 46.118C75.2842 45.0797 74.6245 44.3875 73.7175 44.3875C72.8104 44.3875 72.1507 45.1662 72.1507 46.118C72.1507 47.1563 72.8104 47.8485 73.7175 47.8485C74.6245 47.8485 75.2842 47.1563 75.2842 46.118Z" fill="black"/>
<path d="M81.716 46.118C81.716 47.5024 80.809 48.5407 79.5721 48.5407C78.8299 48.5407 78.1703 48.1081 77.8404 47.5024V50.6173H77.1808V43.7818H77.8404V44.7336C78.1703 44.1279 78.8299 43.6953 79.5721 43.6953C80.809 43.6953 81.716 44.6471 81.716 46.118ZM81.0563 46.118C81.0563 45.0797 80.3967 44.3875 79.4896 44.3875C78.5826 44.3875 77.9229 45.1662 77.9229 46.118C77.9229 47.1563 78.5826 47.8485 79.4896 47.8485C80.3967 47.8485 81.0563 47.1563 81.0563 46.118Z" fill="black"/>
<path d="M82.5405 46.118C82.5405 44.7336 83.53 43.6953 84.8494 43.6953C85.9213 43.6953 86.8284 44.3875 86.9933 45.4258H86.2512C86.0038 44.7336 85.509 44.3875 84.7669 44.3875C83.8599 44.3875 83.1177 45.1663 83.1177 46.2046C83.1177 47.2429 83.7774 48.0216 84.7669 48.0216C85.4266 48.0216 86.0038 47.5889 86.2512 46.9833H86.9933C86.7459 48.1081 85.8389 48.7138 84.8494 48.7138C83.53 48.5407 82.5405 47.5024 82.5405 46.118Z" fill="black"/>
<path d="M91.1987 44.3875H89.632V48.4542H88.9723V44.3875H87.4056V43.6953H89.632H91.1987V44.3875Z" fill="black"/>
<path d="M95.8163 47.1557C95.8163 47.9344 95.3215 48.4536 94.2496 48.4536H92.0232V43.7812H94.0022C95.0742 43.7812 95.5689 44.2139 95.5689 44.9926C95.5689 45.4252 95.3215 45.7713 94.9092 46.0309C95.5689 46.1174 95.8163 46.55 95.8163 47.1557ZM94.0022 44.3004H92.6829V45.7713H93.9197C94.6619 45.7713 94.8268 45.4252 94.8268 45.0791C94.9092 44.6465 94.7443 44.3004 94.0022 44.3004ZM95.1566 47.0692C95.1566 46.6366 94.9092 46.2905 94.1671 46.2905H92.6829V47.8479H94.1671C94.9917 47.8479 95.1566 47.5018 95.1566 47.0692Z" fill="black"/>
<path d="M101.094 46.2911H97.218C97.3005 47.2428 97.9601 47.8485 98.8672 47.8485C99.5268 47.8485 100.022 47.5889 100.269 47.0698H101.011C100.599 48.1081 99.8567 48.5407 98.8672 48.5407C97.5478 48.5407 96.5583 47.5889 96.5583 46.118C96.5583 44.6471 97.5478 43.6953 98.8672 43.6953C100.269 43.6953 101.176 44.7336 101.094 46.2911ZM97.3005 45.6854H100.351C100.187 44.9067 99.6093 44.3875 98.8672 44.3875C98.0426 44.301 97.4654 44.9067 97.3005 45.6854Z" fill="black"/>
<path d="M106.206 43.7812V48.4536H105.546V46.377H102.743V48.4536H102.083V43.7812H102.743V45.7713H105.464V43.7812H106.206Z" fill="black"/>
<path d="M111.483 43.7812V48.4536H110.824V46.377H108.102V48.4536H107.443V43.7812H108.102V45.7713H110.824V43.7812H111.483Z" fill="black"/>
<path d="M116.431 46.8962C116.431 47.9344 115.854 48.4536 114.782 48.4536H112.72V43.7812H113.38V45.3387H114.864C115.854 45.3387 116.431 45.8579 116.431 46.8962ZM115.771 46.8962C115.771 46.377 115.606 45.9444 114.864 45.9444H113.462V47.7614H114.864C115.524 47.7614 115.771 47.3288 115.771 46.8962ZM117.833 43.7812V48.4536H117.173V43.7812H117.833Z" fill="black"/>
<path d="M123.11 43.7815V48.4538H122.45V46.2042V44.6467L119.894 48.4538H119.069V43.7815H119.729V46.0311V47.5886L122.285 43.7815H123.11ZM119.729 41.6183V41.4453H120.306V41.6183C120.306 42.051 120.636 42.3971 121.048 42.3971C121.543 42.3971 121.791 42.1375 121.791 41.6183V41.4453H122.368V41.6183C122.368 42.3971 121.791 42.9162 121.048 42.9162C120.306 42.9162 119.729 42.3971 119.729 41.6183Z" fill="black"/>
<path d="M40.9816 58.9233H40.3219V54.8567H37.6008V58.9233H36.9412V54.251H37.6008H40.9816V58.9233Z" fill="black"/>
<path d="M46.5063 56.7606H42.6308C42.7132 57.7123 43.3729 58.318 44.2799 58.318C44.9396 58.318 45.4343 58.0584 45.6817 57.5393H46.4238C46.0115 58.5776 45.2694 59.0102 44.2799 59.0102C42.9606 59.0102 41.9711 58.0585 41.9711 56.5875C41.9711 55.1166 42.9606 54.1648 44.2799 54.1648C45.6817 54.0783 46.5887 55.2031 46.5063 56.7606ZM42.7132 56.0684H45.7642C45.5992 55.2897 45.022 54.7705 44.2799 54.7705C43.4553 54.7705 42.8781 55.3762 42.7132 56.0684Z" fill="black"/>
<path d="M51.6187 54.165V58.8374H50.9591V56.8473H48.238V58.9239H47.4958V54.2516H48.1555V56.2416H50.8766V54.2516H51.6187V54.165Z" fill="black"/>
<path d="M52.6082 56.5878C52.6082 55.2034 53.5976 54.165 54.917 54.165C55.9889 54.165 56.896 54.8572 57.0609 55.8955H56.3188C56.0714 55.2033 55.5766 54.8573 54.8345 54.8573C53.9275 54.8573 53.1853 55.636 53.1853 56.6743C53.1853 57.7126 53.845 58.4913 54.8345 58.4913C55.4942 58.4913 56.0714 58.0587 56.3188 57.453H57.0609C56.8135 58.5778 55.9065 59.1835 54.917 59.1835C53.6801 59.0104 52.6082 57.9721 52.6082 56.5878Z" fill="black"/>
<path d="M62.1734 54.165V58.8374H61.5137V56.5878V55.0303L58.9575 58.8374H58.1329V54.165H58.7926V56.4147V57.9721L61.3488 54.165H62.1734Z" fill="black"/>
<path d="M67.7804 56.5869C67.7804 57.9713 66.7909 59.0096 65.4715 59.0096C64.1522 59.0096 63.1627 57.9713 63.1627 56.5869C63.1627 55.2025 64.2347 54.1642 65.4715 54.1642C66.7084 54.0777 67.7804 55.116 67.7804 56.5869ZM63.8224 56.5869C63.8224 57.6252 64.5645 58.3174 65.4715 58.3174C66.3786 58.3174 67.1207 57.5387 67.1207 56.5869C67.1207 55.5486 66.3786 54.8564 65.4715 54.8564C64.5645 54.7699 63.8224 55.5486 63.8224 56.5869Z" fill="black"/>
<path d="M72.8929 54.165V58.8374H72.2332V56.8473H69.5121V58.9239H68.8524V54.2516H69.5121V56.2416H72.2332V54.2516H72.8929V54.165Z" fill="black"/>
<path d="M78.2526 54.165V58.8374H77.5929V56.8473H74.8718V58.9239H74.2122V54.2516H74.8718V56.2416H77.5929V54.2516H78.2526V54.165Z" fill="black"/>
<path d="M83.1177 57.2799C83.1177 58.3182 82.5405 58.8374 81.4686 58.8374H79.4071V54.165H80.0668V55.7225H81.551C82.5405 55.7225 83.1177 56.2416 83.1177 57.2799ZM82.458 57.2799C82.458 56.7608 82.2931 56.3282 81.551 56.3282H80.1492V58.1452H81.551C82.2107 58.2317 82.458 57.7991 82.458 57.2799ZM84.5195 54.165V58.8374H83.8598V54.165H84.5195Z" fill="black"/>
<path d="M89.7968 54.1647V58.837H89.1371V56.5874V55.0299L86.5809 58.837H85.7563V54.1647H86.416V56.4143V57.9718L88.9722 54.1647H89.7968ZM86.416 52.0881V51.915H86.9932V52.0881C86.9932 52.5207 87.323 52.8668 87.7353 52.8668C88.2301 52.8668 88.4775 52.6072 88.4775 52.0881V51.915H89.0547V52.0881C89.0547 52.8668 88.4775 53.386 87.7353 53.386C86.9932 53.386 86.416 52.8668 86.416 52.0881Z" fill="black"/>
<path d="M101.588 56.5874C101.588 57.9718 100.681 59.0101 99.5269 59.0101C98.7848 59.0101 98.1251 58.5774 97.7953 57.9718V61.0001H97.1356V57.9718C96.8058 58.5774 96.1461 59.0101 95.404 59.0101C94.1671 59.0101 93.3425 57.9718 93.3425 56.5874C93.3425 55.1165 94.2496 54.1647 95.404 54.1647C96.1461 54.1647 96.8058 54.5973 97.1356 55.203V52.3477H97.7953V55.203C98.1251 54.5973 98.7848 54.1647 99.5269 54.1647C100.681 54.0782 101.588 55.1165 101.588 56.5874ZM97.0532 56.5874C97.0532 55.5491 96.3935 54.8569 95.4864 54.8569C94.5794 54.8569 93.9197 55.6356 93.9197 56.5874C93.9197 57.6257 94.5794 58.3179 95.4864 58.3179C96.3935 58.3179 97.0532 57.6257 97.0532 56.5874ZM100.929 56.5874C100.929 55.5491 100.269 54.8569 99.362 54.8569C98.4549 54.8569 97.7953 55.6356 97.7953 56.5874C97.7953 57.6257 98.4549 58.3179 99.362 58.3179C100.269 58.3179 100.929 57.6257 100.929 56.5874Z" fill="black"/>
<path d="M107.031 56.5869C107.031 57.9713 106.041 59.0096 104.722 59.0096C103.402 59.0096 102.413 57.9713 102.413 56.5869C102.413 55.2025 103.485 54.1642 104.722 54.1642C106.041 54.0777 107.031 55.116 107.031 56.5869ZM103.073 56.5869C103.073 57.6252 103.815 58.3174 104.722 58.3174C105.629 58.3174 106.371 57.5387 106.371 56.5869C106.371 55.5486 105.629 54.8564 104.722 54.8564C103.815 54.7699 103.073 55.5486 103.073 56.5869Z" fill="black"/>
<path d="M112.143 54.165V58.8374H111.483V56.8473H108.762V58.9239H108.103V54.2516H108.762V56.2416H111.483V54.2516H112.143V54.165Z" fill="black"/>
<path d="M118.492 58.2317V60.1353H117.833V58.8374H117.008H113.627V60.1353H112.968V58.2317H113.71C113.957 58.0587 114.122 57.626 114.287 56.7608L114.699 54.165H117.75V58.2317H118.492ZM117.008 58.2317V54.8573H115.194L114.864 56.7608C114.782 57.5395 114.617 57.9721 114.369 58.2317H117.008Z" fill="black"/>
</svg>
