<svg width="20" height="22" viewBox="0 0 20 22" fill="none" xmlns="http://www.w3.org/2000/svg">
<path fill-rule="evenodd" clip-rule="evenodd" d="M2.36297 14.5694C2.77093 14.1792 3.24861 13.9045 3.75962 13.7664C4.27064 13.6282 4.8015 13.6301 5.31178 13.7721C6.07847 14.1497 6.57387 15.5765 7.06927 16.2898C7.17374 16.4608 7.32724 16.5808 7.50097 16.6271C7.6747 16.6735 7.85672 16.6431 8.01289 16.5416C10.8198 15.2379 13.1725 12.8472 14.689 9.75767C14.8183 9.56488 14.8796 9.32009 14.8598 9.07484C14.84 8.8296 14.7407 8.60303 14.5828 8.44285C14.0303 7.79419 13.6246 6.99079 13.4033 6.10693C13.3542 5.13202 13.5425 4.16092 13.9459 3.30943C14.2577 2.11568 14.8512 1.05272 15.6562 0.24617C16.0714 0.0247278 16.5318 -0.0495208 16.9817 0.0323832C17.4317 0.114287 17.8521 0.348844 18.1922 0.707758C18.7826 1.3118 19.2512 2.06519 19.5635 2.91245C19.8758 3.75971 20.0239 4.67926 19.9969 5.60338C19.995 6.12233 19.9396 6.63906 19.8317 7.14201C19.5578 8.3504 19.1366 9.50488 18.5814 10.5689C18.1809 11.384 17.7438 12.1731 17.2722 12.9328C15.7393 15.4282 13.8125 17.5469 11.5986 19.1713C10.4877 19.9967 9.30038 20.6679 8.06007 21.1715C6.77166 21.8641 5.34912 22.1299 3.94353 21.9408C3.14268 21.797 2.38389 21.4221 1.73394 20.8489C1.08399 20.2757 0.562803 19.5219 0.216232 18.6537C0.0126076 18.1293 -0.0491982 17.543 0.0393009 16.9752C0.251616 15.8143 1.56089 15.1289 2.36297 14.5694Z" fill="black"/>
</svg>
