<svg width="51" height="51" viewBox="0 0 51 51" fill="none" xmlns="http://www.w3.org/2000/svg">
<g clip-path="url(#clip0_366_7)">
<path d="M39.8838 19.603L40.2668 18.3493L38.9997 18.3899C38.8927 18.3899 38.1146 18.3674 37.3596 17.8076C37.4159 17.8132 37.4721 17.8212 37.5296 17.8212C38.3066 17.8212 39.0582 17.3427 39.3595 16.6588L39.9048 15.423C39.2216 15.4321 38.5969 15.3441 38.5969 15.3441C38.5913 15.343 38.0991 15.2786 37.5296 14.6839C37.1212 14.2573 36.6157 14.0316 36.0682 14.0316C35.8287 14.0316 35.6146 14.0757 35.4302 14.1355C35.4589 14.035 35.4865 13.9334 35.502 13.8285C35.6764 12.6718 34.9479 11.7893 34.9479 11.7905L33.9954 10.5841L33.4049 12.0015C33.4027 12.006 33.2536 12.3378 32.9866 12.5003C32.906 12.0839 32.7085 11.6156 32.2857 11.1675C31.4888 10.3234 30.5186 10.1982 30.0109 10.1982C29.7758 10.1982 29.608 10.2241 29.5672 10.2309L28.4171 10.4622C28.4833 10.1993 28.6246 9.74226 28.8829 9.33032L29.5176 8.3192L27.9204 8.50539L27.4116 7.40063L26.427 7.91973L25.5165 7L24.6081 7.91973L23.6202 7.40063L23.1125 8.50539L21.5165 8.3192L22.1523 9.33032C22.4106 9.74226 22.5518 10.1982 22.617 10.4611L21.5199 10.2399L21.4823 10.2331C21.4271 10.2241 21.2605 10.1982 21.0242 10.1982C20.5166 10.1982 19.5464 10.3246 18.7517 11.1675C18.3278 11.6144 18.1303 12.0839 18.0486 12.5003C17.7837 12.3401 17.6358 12.0128 17.6358 12.0128L17.0442 10.5875L16.0762 11.8017C15.9581 11.9586 15.3743 12.788 15.5331 13.8308C15.5497 13.9346 15.5762 14.0361 15.6049 14.1366C15.4217 14.0768 15.2075 14.0328 14.9681 14.0328C14.4206 14.0328 13.9151 14.2585 13.5056 14.6851C12.9383 15.2775 12.4482 15.3441 12.4526 15.3441C12.4526 15.3441 11.9349 15.4389 11.1337 15.4242L11.6756 16.6599C11.9769 17.3449 12.7297 17.8222 13.5056 17.8222C13.5641 17.8222 13.6204 17.8144 13.6778 17.8087C12.925 18.3684 12.1469 18.391 12.0531 18.3922L10.7617 18.3493L11.1524 19.6019C11.3489 20.2474 12.0056 21.3172 13.2639 21.4323C13.127 22.0191 12.8235 22.6759 12.1569 22.9592L11.1955 23.3643L11.7197 24.2976C12.0155 24.8009 12.7098 25.39 13.6988 25.39C13.9129 25.3888 14.1192 25.3674 14.318 25.3246C14.3687 25.5547 14.4327 25.7849 14.5078 26.0129C14.8025 26.9089 14.5486 27.5341 14.5453 27.5409L14.0707 28.5576L15.1303 28.8432C15.1435 28.8477 15.4636 28.9368 15.8643 28.9368C16.0464 28.9368 16.2197 28.9177 16.3831 28.8782C16.5067 28.8488 16.6248 28.8093 16.7384 28.7619C16.8753 29.0136 17.042 29.2426 17.2363 29.448C17.915 30.1601 18.8764 30.5212 20.0949 30.5212H20.0993L20.9691 30.51L19.1722 31.2728L20.5364 31.9466C21.032 32.1937 21.6203 32.4859 22.2185 32.7094L22.0485 33.1856L22.5187 33.4045C22.5607 33.4237 23.4646 33.8379 24.968 33.9259C24.968 33.9259 25.331 33.9428 25.5308 33.9428C25.7306 33.9428 26.0893 33.9248 26.0893 33.9248C27.5826 33.8345 28.48 33.4248 28.522 33.4045L28.9932 33.1845L28.821 32.7071C29.437 32.4769 30.0462 32.1733 30.5208 31.9364L31.8596 31.2717L30.0683 30.5077L30.9414 30.519C32.161 30.519 33.1235 30.1578 33.8011 29.4446C33.9943 29.2404 34.1609 29.0113 34.299 28.7597C34.4126 28.8071 34.5318 28.8465 34.6554 28.8759C34.8176 28.9154 34.991 28.9346 35.1731 28.9346C35.5671 28.9346 35.8905 28.8454 35.8993 28.8432L36.9633 28.5554L36.4997 27.5578C36.4887 27.5318 36.2349 26.9078 36.5296 26.0106C36.6047 25.7816 36.6675 25.5513 36.7183 25.3223C36.9181 25.3652 37.1267 25.3877 37.342 25.3877C38.6013 25.3877 39.2051 24.4815 39.322 24.2851L39.8408 23.3621L38.8794 22.9581C38.2117 22.6748 37.9093 22.0169 37.7735 21.4312C39.0141 21.3229 39.6807 20.2531 39.8838 19.603ZM22.7009 10.8933L22.6876 10.8967L22.6986 10.882L22.7009 10.8933Z" fill="white"/>
<path d="M25.5173 10.838C24.4996 10.8391 23.7369 11.1799 23.5703 11.5805L25.5173 12.366L27.4643 11.5805C27.2987 11.1799 26.536 10.8391 25.5173 10.838Z" fill="white"/>
<path d="M25.537 31.6305H25.5348H25.5182H25.4995H25.4984C24.8814 31.635 24.0326 31.5052 23.6231 31.3834L23.1309 32.7454C23.4553 32.8639 24.5547 33.0896 25.5182 33.0896C26.4795 33.0896 27.58 32.8628 27.9034 32.7454L27.4123 31.3834C27.0016 31.5064 26.1539 31.635 25.537 31.6305Z" fill="white"/>
<path d="M29.2635 30.2764C28.897 30.4885 28.0792 30.8067 27.6035 30.9546L28.003 32.0797C28.7393 31.8743 29.3463 31.6339 29.8485 31.3766L29.0196 31.0945L29.2635 30.2764Z" fill="white"/>
<path d="M21.7744 30.2764L22.0195 31.0945L21.1895 31.3766C21.6905 31.6339 22.3009 31.8743 23.0338 32.0797L23.4333 30.9546C22.9598 30.8067 22.1409 30.4874 21.7744 30.2764Z" fill="white"/>
<path d="M25.5176 9.53577C26.2846 9.53577 27.0374 9.72306 27.6157 10.0526C27.6688 9.8709 27.7427 9.65083 27.8432 9.42066L27.6246 9.44769L27.395 9.47253L27.2979 9.25925L27.0054 8.62729L26.4723 8.91171L26.2648 9.02003L26.0992 8.85299L25.5197 8.26617L24.9414 8.85299L24.7758 9.02003L24.5683 8.91171L24.032 8.62729L23.7428 9.25925L23.6434 9.47253L23.4138 9.44769L23.1953 9.42066C23.2957 9.65198 23.3686 9.8709 23.4227 10.0526C24.0021 9.72306 24.7527 9.53577 25.5176 9.53577Z" fill="white"/>
<path d="M37.2287 16.8394C37.328 16.8744 37.4296 16.8902 37.53 16.8902C37.9638 16.8902 38.3832 16.6036 38.5278 16.2752C38.5278 16.2752 37.732 16.2255 36.8766 15.3374C36.604 15.0496 36.3159 14.9639 36.0687 14.9639C35.6846 14.9639 35.3965 15.1715 35.3965 15.1715C36.4296 15.7335 36.6404 16.6363 37.2287 16.8394Z" fill="white"/>
<path d="M13.5045 16.8902C13.6049 16.8902 13.7065 16.8744 13.8036 16.8394C14.3942 16.6363 14.606 15.7335 15.6391 15.1715C15.6391 15.1715 15.35 14.9639 14.968 14.9639C14.7198 14.9639 14.4316 15.0496 14.1579 15.3374C13.3036 16.2255 12.5078 16.2752 12.5078 16.2752C12.6502 16.6036 13.0707 16.8902 13.5045 16.8902Z" fill="white"/>
<path d="M37.5093 20.5081C37.527 20.5092 37.5425 20.5092 37.5612 20.5092C38.644 20.5092 39.0115 19.3232 39.0115 19.3232H38.9905C38.7919 19.3232 37.1815 19.2758 36.0436 17.7963C35.2942 16.8235 34.6805 15.9681 33.4674 15.6318L33.3482 15.6104L33.3218 15.4863C33.2886 15.2967 33.4156 15.1195 33.7037 14.9277C35.3769 13.8071 34.2412 12.3784 34.2412 12.3784C34.2412 12.3784 33.7633 13.5216 32.6937 13.5216C32.6683 13.5216 32.6408 13.5204 32.6143 13.5204C32.4928 13.5137 32.3759 13.5091 32.2578 13.4832L32.0602 13.4437C32.0602 13.4437 32.3648 12.5962 31.6298 11.8176C31.0757 11.2296 30.4012 11.1302 30.0117 11.1302C29.8152 11.1302 29.6905 11.1562 29.6905 11.1562C30.0602 11.6505 30.3273 12.4698 29.9002 12.9754C29.5315 13.4098 28.6309 13.4312 28.6309 14.079C28.6309 14.3533 28.8814 14.6737 29.3318 14.9615C30.6861 15.8338 32.0304 16.9906 32.5889 18.5411C33.2876 20.4754 32.5006 21.7584 31.377 22.4942C31.377 22.4942 31.7291 22.826 32.2401 22.8678C32.3439 22.8779 32.4454 22.8825 32.5403 22.8825C33.6187 22.8825 34.1761 22.3656 34.1761 22.3656C34.1761 22.3656 34.0844 23.0799 33.5227 23.7434C33.005 24.3563 32.3251 24.7162 31.2887 24.732C31.2887 24.732 31.2556 25.2241 31.7147 25.6495C32.0084 25.9181 32.6871 26.0061 32.6871 26.0061C32.6871 26.0061 31.4167 26.269 31.2766 28.1875C31.2004 29.2268 30.941 29.588 30.941 29.588H30.9641C33.9123 29.588 33.8361 27.0026 33.8361 27.0026C33.8361 27.0026 34.0414 27.7677 34.8637 27.9674C34.963 27.9945 35.069 28.0047 35.1705 28.0047C35.4354 28.0047 35.665 27.9415 35.665 27.9415C35.665 27.9415 35.2345 27.0127 35.6617 25.7138C36.016 24.6361 35.9586 23.8372 35.9586 23.8372C35.9586 23.8372 36.356 24.451 37.3405 24.4567H37.3504C38.1705 24.4567 38.5281 23.8213 38.5281 23.8213C36.5624 22.9874 36.7566 20.2948 36.7566 20.2948C36.7566 20.2948 37.0116 20.4889 37.5093 20.5081ZM36.9177 23.3202C36.1186 22.9174 35.6131 21.8476 35.4906 21.4617C35.3582 23.5832 34.345 25.056 33.1606 26.4733C32.5459 27.2079 32.3317 27.9223 32.3317 27.9223C32.3317 27.9223 32.4498 27.1132 32.9818 26.4541C34.0867 25.0965 35.1363 23.4072 35.2147 21.4538C35.2687 20.0905 34.9255 18.9846 34.3902 18.0739C34.6893 19.0229 34.6474 20.1853 33.6308 21.2698C33.6308 21.2698 35.654 18.7905 32.8251 16.2491C31.6927 15.282 30.4543 14.685 29.8163 14.2618C32.1209 15.0304 33.2456 14.184 33.2456 14.184C32.5094 14.8363 31.5569 14.825 30.9664 14.7313C31.1264 14.8114 31.2931 14.8949 31.473 14.9931C33.4156 16.0719 35.1617 17.8471 35.4597 20.3061V20.2869C35.9122 22.7007 36.9177 23.3202 36.9177 23.3202Z" fill="white"/>
<path d="M18.3479 26.0061C18.3479 26.0061 19.0267 25.9192 19.3203 25.6495C19.7783 25.2241 19.7463 24.732 19.7463 24.732C18.7088 24.7174 18.03 24.3562 17.509 23.7446C16.9516 23.0811 16.8589 22.3667 16.8589 22.3667C16.8589 22.3667 17.4163 22.8835 18.4935 22.8835C18.5907 22.8835 18.6911 22.879 18.7949 22.8689C19.3059 22.8271 19.6591 22.4953 19.6591 22.4953C18.5355 21.7596 17.7474 20.4754 18.445 18.5411C19.0046 16.9917 20.3478 15.8338 21.7021 14.9615C22.1525 14.6737 22.403 14.3544 22.403 14.079C22.403 13.4312 21.5035 13.4098 21.1348 12.9754C20.7077 12.4698 20.9759 11.6494 21.3445 11.1562C21.3445 11.1562 21.222 11.1302 21.0244 11.1302C20.636 11.1302 19.9615 11.2296 19.4075 11.8176C18.6702 12.5962 18.9759 13.4437 18.9759 13.4437L18.7783 13.4832C18.6602 13.5091 18.5422 13.5137 18.4218 13.5204C18.3943 13.5204 18.3699 13.5216 18.3434 13.5216C17.2717 13.5216 16.796 12.3795 16.796 12.3795C16.796 12.3795 15.6602 13.8082 17.3325 14.9288C17.6205 15.1206 17.7463 15.2978 17.7132 15.4874L17.6867 15.6116L17.5653 15.633C16.3545 15.9693 15.7398 16.8247 14.9903 17.7975C13.8545 19.2746 12.2464 19.3232 12.0455 19.3232H12.0234C12.0234 19.3232 12.391 20.5092 13.4738 20.5092C13.4914 20.5092 13.5068 20.5092 13.5256 20.5081C14.0235 20.49 14.2796 20.2948 14.2796 20.2948C14.2796 20.2948 14.4715 22.9862 12.508 23.8213C12.508 23.8213 12.8656 24.4567 13.6857 24.4567H13.6956C14.6812 24.451 15.0775 23.8372 15.0775 23.8372C15.0775 23.8372 15.0201 24.6361 15.3733 25.7138C15.8004 27.0127 15.3722 27.9415 15.3722 27.9415C15.3722 27.9415 15.6018 28.0047 15.8655 28.0047C15.9682 28.0047 16.0731 27.9945 16.1713 27.9674C16.9925 27.7677 17.1989 27.0026 17.1989 27.0026C17.1989 27.0026 17.1238 29.588 20.0719 29.588H20.0929C20.0929 29.588 19.8346 29.2268 19.7596 28.1875C19.6183 26.269 18.3479 26.0061 18.3479 26.0061ZM17.8744 26.4733C16.6901 25.056 15.6779 23.5832 15.5444 21.4617C15.4219 21.8465 14.9185 22.9174 14.1195 23.3202C14.1195 23.3202 15.1238 22.7007 15.5753 20.2869V20.3061C15.8744 17.8482 17.6194 16.0719 19.5631 14.9931C19.7408 14.8939 19.9096 14.8103 20.0686 14.7313C19.4781 14.825 18.5256 14.8363 17.7894 14.184C17.7894 14.184 18.9141 15.0304 21.2176 14.2618C20.5796 14.685 19.3423 15.282 18.2099 16.2491C15.3799 18.7905 17.4042 21.2698 17.4042 21.2698C16.3865 20.1842 16.3457 19.0229 16.6448 18.0739C16.1084 18.9857 15.7662 20.0905 15.8214 21.4538C15.8987 23.4072 16.9483 25.0965 18.051 26.4541C18.5841 27.112 18.7044 27.9223 18.7044 27.9223C18.7044 27.9223 18.488 27.2079 17.8744 26.4733Z" fill="white"/>
<path d="M23.338 16.5538C23.3866 16.6069 23.434 16.6645 23.4793 16.722C23.4903 16.7355 23.5002 16.7479 23.5113 16.7638C23.5532 16.8213 23.5963 16.8822 23.6371 16.9443C23.6459 16.9567 23.6548 16.9714 23.6647 16.9861C23.7144 17.0628 23.7607 17.1418 23.8071 17.2231C24.232 17.9736 24.913 18.4215 25.5168 18.4227C26.1217 18.4215 26.8004 17.9736 27.2276 17.2231C27.275 17.1396 27.3225 17.0583 27.3722 16.9826C27.3799 16.9714 27.3876 16.9612 27.3942 16.95C27.4361 16.8856 27.4803 16.8225 27.5267 16.7615C27.5366 16.7479 27.5455 16.7367 27.5543 16.7254C27.6017 16.6656 27.6503 16.6069 27.6999 16.5527C27.7088 16.5437 27.7154 16.5358 27.7231 16.5291C27.9395 16.3022 28.1978 16.1295 28.5355 16.0336L28.3854 15.9445H28.3765L27.7784 15.589L27.1636 15.229L25.5212 16.1431L25.5168 16.1397L25.5135 16.1431L23.87 15.229L23.2563 15.5879L22.657 15.9433H22.6504L22.498 16.0325C22.8369 16.1284 23.0941 16.2988 23.3115 16.5256C23.3214 16.5347 23.3281 16.5449 23.338 16.5538ZM24.8524 16.4805H25.5477H26.2419V16.9681C26.0785 16.7638 25.7607 16.8055 25.7607 16.8055V17.5086C25.7607 17.5086 25.7729 17.8539 25.8909 18.004H25.5477H25.2033C25.3236 17.855 25.3347 17.5086 25.3347 17.5086V16.8055C25.3347 16.8055 25.0179 16.7638 24.8524 16.9681V16.4805Z" fill="white"/>
<path d="M25.3747 15.5347V12.6808L23.5977 12.0646L24.0668 14.8305L25.3747 15.5347ZM24.9928 13.3815V13.8397L24.9067 13.7991C24.9023 13.7957 24.7765 13.7664 24.5557 13.5881C24.1915 13.2992 24.1849 13.0328 24.1849 13.0328L24.9928 13.3815Z" fill="white"/>
<path d="M26.9692 14.8305L27.4361 12.0646L25.6602 12.6808V15.5347L26.9692 14.8305ZM26.042 13.3815L26.8499 13.034C26.8499 13.034 26.8434 13.3003 26.478 13.5892C26.2584 13.7674 26.1314 13.7968 26.127 13.8002L26.0409 13.8408V13.3815H26.042Z" fill="white"/>
<path d="M22.8623 22.1512C23.0356 22.2156 23.2454 22.2291 23.3524 22.2291C23.3568 22.2156 23.3623 22.1987 23.3679 22.1783C23.3778 22.1456 23.3866 22.114 23.3933 22.0779C23.423 21.9199 23.4341 21.7405 23.4363 21.6254C23.3634 21.5791 23.2608 21.4967 23.2034 21.3737C23.1372 21.2315 23.0434 21.1661 22.9054 21.1661C22.7266 21.1661 22.5346 21.2756 22.4529 21.3274C22.3878 21.7213 22.6714 22.079 22.8623 22.1512Z" fill="white"/>
<path d="M26.793 20.6366C26.4629 21.0034 25.8172 21.6421 25.7852 21.6748L25.7466 21.7154L23.7058 21.6827C23.7047 21.8893 23.6715 22.0653 23.6396 22.1939C23.6341 22.2154 23.6285 22.238 23.623 22.2605L26.0512 22.7063C26.304 22.5258 26.9994 22.0066 27.2687 21.8035C27.0721 21.5101 27.0535 21.1625 27.0976 20.9176C26.9695 20.833 26.8713 20.7382 26.793 20.6366Z" fill="white"/>
<path d="M27.0686 18.127C26.5984 18.6043 26.147 18.7804 25.7442 18.821C25.6713 18.8289 25.5974 18.8334 25.5223 18.8334H25.5168H25.5123C25.4373 18.8334 25.3622 18.8289 25.2894 18.821C25.2187 18.8142 25.1448 18.803 25.0709 18.786C25.0444 18.8933 25.0112 19.1178 25.1062 19.33C25.1912 19.5229 25.3645 19.6663 25.6172 19.7611L25.7022 19.7949L25.7033 19.8886C25.7033 19.9168 25.7232 20.5239 26.3711 20.6921C26.477 20.5804 26.573 20.4799 26.6437 20.3964C26.5112 20.0781 26.5808 19.7532 26.7728 19.594C26.764 19.6279 26.6802 20.4246 27.3048 20.7202L27.4075 20.7699L27.3766 20.8817C27.3666 20.9155 27.1581 21.6863 27.9141 21.9729L28.0476 22.0249L27.9881 22.158C27.9748 22.1873 27.6779 22.887 28.3765 23.2842H29.892V22.0541C29.3534 21.9864 29.1249 21.5441 29.0664 21.2304C28.8158 21.1863 28.6216 21.0757 28.4892 20.8952C28.1713 20.4675 28.445 20.0759 28.4483 20.0544C28.4472 20.0579 28.4483 20.4754 28.6999 20.7327C28.8247 20.8568 28.9726 20.9528 29.1966 20.9742L29.307 20.9844L29.3169 21.0994C29.3192 21.1243 29.3798 21.6886 29.8931 21.7777L29.892 19.2656C29.892 18.8763 30.0035 18.4848 30.137 18.1236H27.0686V18.127Z" fill="white"/>
<path d="M22.992 19.2779L22.9512 20.8781L23.1288 20.9052L23.5637 19.3704L23.3429 18.8987L22.992 19.2779Z" fill="white"/>
<path d="M27.7866 26.6166C27.7999 26.6166 27.8153 26.6189 27.8297 26.6223C28.1001 26.7012 28.1685 27.6989 28.6431 27.788C28.6895 27.7982 28.7325 27.8004 28.7701 27.8004C28.9069 27.8004 28.9886 27.7406 29.0769 27.6345C29.0769 27.6345 28.8384 27.2508 28.6597 26.9924C28.4224 26.6539 28.2381 26.2442 27.7965 26.2442C27.7866 26.2442 27.7734 26.2442 27.7623 26.2454C27.6166 26.2532 27.5273 26.3254 27.5273 26.3254C27.3484 26.2103 27.1817 26.1709 27.0306 26.1709C26.7535 26.1709 26.5383 26.3006 26.4312 26.3006H26.4268L25.4401 26.2014C25.2856 26.1867 25.1642 26.0275 25.12 25.9655C25.1089 25.9486 25.1034 25.9384 25.1034 25.9384C25.1034 25.9113 25.1034 25.8831 25.1012 25.8583C25.0681 25.0333 24.4434 24.6801 24.2215 24.6745C24.2215 24.6745 24.248 24.5176 24.1873 24.4578L23.9699 24.7275L23.2558 24.3608L23.7646 24.969L23.333 25.4645C23.279 25.5208 23.2856 25.5976 23.3076 25.6292L23.4942 25.7973L23.7303 25.6506C23.7425 25.6415 23.7635 25.6394 23.7899 25.6394C23.8551 25.6394 23.9533 25.6562 24.0416 25.6562C24.1376 25.6562 24.2215 25.6348 24.2315 25.5423C24.2017 25.8481 23.9246 26.3796 24.1067 26.7971L24.2414 27.112L23.3694 26.9834L22.9611 27.6887C22.8353 27.9234 22.8153 28.1773 22.9368 28.315L23.0891 28.5103C23.0891 28.5103 23.3032 28.2778 23.3518 28.1254L23.2823 28.0476C23.2237 27.9821 23.2271 27.9234 23.2624 27.8523L23.5184 27.4179L24.5482 27.6661L24.6023 27.5713C24.6719 27.4529 24.7723 27.4168 24.8827 27.4168C24.9279 27.4168 24.9743 27.4224 25.0228 27.4303C25.2138 27.4686 25.5284 27.5205 25.8429 27.5205C26.1884 27.5205 26.5306 27.4574 26.7127 27.2486C27.0857 27.814 27.8418 27.9042 27.7822 28.1908L27.5835 29.1591C27.7149 29.1535 27.8418 29.1445 27.9621 29.1275L28.1508 28.1198C28.1718 28.0103 28.1917 27.8625 28.1917 27.8625C28.1188 27.7869 27.9422 27.6266 27.8429 27.4325C27.7093 27.1707 27.7822 27.0342 27.6575 26.6934C27.6619 26.6956 27.6994 26.6166 27.7866 26.6166ZM23.9345 25.2015C23.8838 25.2004 23.8473 25.1564 23.8496 25.1044C23.854 25.0548 23.8948 25.0153 23.9445 25.0198C23.9953 25.022 24.0317 25.0672 24.0295 25.1168C24.0251 25.1665 23.9831 25.2048 23.9345 25.2015Z" fill="white"/>
<path d="M22.5267 27.5329C22.5267 27.5329 22.8678 27.3896 22.8987 27.287L22.8534 27.1707C22.8214 27.0951 22.8259 27.0127 22.8877 26.9675L23.2563 26.7068L23.8722 26.8276C23.8722 26.8276 23.7607 26.6854 23.7718 26.4947L23.1846 26.3672L22.6305 26.7125C22.3932 26.8942 22.3755 27.1909 22.4539 27.3671L22.5267 27.5329Z" fill="white"/>
<path d="M26.8809 29.1737C26.9912 29.1692 27.1126 29.1669 27.2462 29.1669C27.2462 29.1669 27.563 28.2202 27.5806 28.1896C27.4029 28.1096 27.0343 27.9098 26.8919 27.8184C26.9857 27.9618 27.2142 28.1264 27.1689 28.2529L26.8809 29.1737Z" fill="white"/>
<path d="M29.8965 23.5585H21.1406V26.9259C21.1406 28.3027 22.1152 29.1648 23.5534 29.1648C24.7554 29.1648 25.0721 29.2121 25.5192 29.6659C25.8271 29.3521 26.0821 29.2347 26.6052 29.1907L26.6174 29.1388L26.8933 28.2665C26.8779 28.2473 26.4264 27.7225 26.4264 27.7225C26.2476 27.7835 26.0975 27.7937 25.8448 27.7937C25.5854 27.7937 25.2929 27.7632 24.9761 27.7023C24.9441 27.6944 24.9144 27.6921 24.8845 27.6921C24.8459 27.6921 24.8426 27.6955 24.8326 27.7147L24.7774 27.8072L24.677 27.9765L24.4883 27.9325L23.6483 27.7305L23.5336 27.9246L23.5512 27.9449L23.6538 28.06L23.6086 28.2101C23.5468 28.4064 23.3459 28.6355 23.2852 28.6988L23.0755 28.9289L22.8846 28.6818L22.741 28.4979C22.5899 28.3252 22.5545 28.06 22.6395 27.7824C22.6373 27.7846 22.634 27.7858 22.6306 27.7858L22.3934 27.8862L22.2863 27.6492L22.2112 27.4811C22.0821 27.1854 22.1296 26.7532 22.4772 26.4925L23.1538 26.1021L23.7974 26.2318C23.8128 26.1687 23.836 25.943 23.8547 25.8854C23.8425 25.8842 23.8304 25.8809 23.8183 25.8809L23.4474 26.0219L23.0898 25.7691C23.0898 25.7691 22.9497 25.6315 23.0766 25.4938L23.4231 24.9578L22.5457 23.8315L23.8945 24.398L23.9838 24.284L24.166 24.0617L24.3724 24.2626C24.4309 24.3201 24.464 24.3913 24.4805 24.4624C24.8525 24.6102 25.518 25.0469 25.5765 25.7567L25.3679 25.8425V25.8481C25.4154 25.9057 25.4551 25.9294 25.4673 25.9316L26.4297 26.0288C26.454 26.0242 26.4849 26.0129 26.5191 26.0027C26.6384 25.961 26.8182 25.9012 27.0313 25.9012C27.2046 25.9012 27.3723 25.9418 27.5334 26.0186C27.5931 25.996 27.6659 25.9791 27.7498 25.9734L27.7962 25.9723C28.3116 25.9723 28.5677 26.3661 28.773 26.6798C28.8072 26.734 28.8414 26.786 28.8768 26.8367C29.0567 27.0963 29.2917 27.4766 29.3017 27.4924L29.4076 27.6616L29.2774 27.8163C29.177 27.9347 29.0268 28.0735 28.7686 28.0735C28.7156 28.0735 28.6571 28.0679 28.5942 28.0555C28.5389 28.0453 28.4893 28.0284 28.4407 28.0081C28.433 28.06 28.4231 28.1221 28.4131 28.1751L28.2442 29.0756C29.2542 28.8218 29.8955 28.042 29.8955 26.927L29.8965 23.5585Z" fill="white"/>
<path d="M21.1393 23.2877H27.9483C27.6083 22.9289 27.6127 22.4741 27.6999 22.1784C27.6006 22.1299 27.5189 22.0712 27.446 22.008C27.18 22.2089 26.3677 22.8137 26.1558 22.965L26.1105 22.9965L23.4383 22.5022H23.3842C23.3203 22.5022 23.2264 22.5 23.1238 22.4876C23.0951 22.6106 22.9913 22.6953 22.8721 22.6953C22.8589 22.6953 22.8434 22.6941 22.8291 22.6907C22.7596 22.6783 22.6988 22.6422 22.658 22.5824C22.616 22.5237 22.5995 22.4537 22.6116 22.3815L22.6216 22.3229C22.3457 22.1242 22.0918 21.6807 22.2044 21.2135L22.2154 21.1639L22.254 21.1356C22.2595 21.1311 22.3059 21.0996 22.3743 21.0589L22.1801 21.0285C22.1072 21.0149 22.0587 20.946 22.0698 20.8727C22.0819 20.7982 22.1503 20.7452 22.2221 20.7599L22.6845 20.8344L22.7265 19.1687L23.4151 18.4238L23.8445 19.3481L23.3909 20.9506L23.7993 21.016C23.8711 21.0273 23.9207 21.0961 23.9097 21.1717C23.8986 21.2384 23.8435 21.2846 23.7783 21.2846C23.7717 21.2846 23.7639 21.2846 23.7574 21.2835L23.4251 21.2282C23.4295 21.2384 23.4362 21.244 23.4406 21.2553C23.4759 21.3297 23.5542 21.3839 23.6006 21.4065L25.6381 21.4392C25.7242 21.3535 25.9383 21.139 26.158 20.9122C25.6569 20.7181 25.4748 20.2757 25.4438 19.9823C25.1635 19.8604 24.9703 19.6777 24.8633 19.4396C24.733 19.145 24.7794 18.8505 24.8136 18.7071C24.5421 18.6056 24.2562 18.4205 23.9648 18.1248H20.8965C21.0278 18.4859 21.1393 18.8775 21.1393 19.2669V23.2877Z" fill="white"/>
<path d="M23.9448 25.0198C23.8951 25.0152 23.8531 25.0547 23.8498 25.1044C23.8465 25.1563 23.884 25.2003 23.9348 25.2014C23.9834 25.206 24.0264 25.1676 24.0308 25.1168C24.0308 25.0672 23.9955 25.0209 23.9448 25.0198Z" fill="black"/>
<path d="M29.8834 31.126L29.379 30.9285L29.518 30.3958L29.6714 29.8147C29.6714 29.8147 28.7774 30.31 27.518 30.6825C27.1604 30.7874 26.89 30.8348 26.89 30.8348V31.2298C26.89 31.2298 26.2167 31.3494 25.5358 31.3494H25.528H25.5181H25.5049H25.4971C24.8161 31.3494 24.1428 31.2298 24.1428 31.2298V30.8348C24.1428 30.8348 23.8713 30.7874 23.5148 30.6825C22.2554 30.31 21.3625 29.8147 21.3625 29.8147L21.5137 30.3958L21.6561 30.9285L21.1506 31.126L20.5898 31.3404C21.2333 31.6575 22.1241 32.1202 22.9398 32.3481L22.7477 32.8853C22.7477 32.8853 23.7819 33.3671 25.5049 33.3717V33.3728H25.5103H25.5181H25.5247H25.5291V33.3717C27.2542 33.3671 28.2873 32.8853 28.2873 32.8853L28.0942 32.3481C28.9099 32.1202 29.8028 31.6575 30.4429 31.3404L29.8834 31.126ZM21.1881 31.3765L22.0181 31.0943L21.7731 30.2762C22.1384 30.4884 22.9585 30.8066 23.4331 30.9544L23.0324 32.0796C22.2996 31.8731 21.6892 31.6327 21.1881 31.3765ZM25.5181 33.0896C24.5545 33.0896 23.454 32.8627 23.1307 32.7453L23.623 31.3833C24.0313 31.5051 24.8812 31.635 25.4982 31.6304H25.4993H25.5181H25.5346H25.5368C26.1538 31.635 27.0015 31.5051 27.4121 31.3833L27.9033 32.7453C27.5798 32.8639 26.4805 33.0896 25.5181 33.0896ZM28.0015 32.0796L27.6019 30.9544C28.0777 30.8066 28.8955 30.4884 29.2619 30.2762L29.018 31.0943L29.8469 31.3765C29.3447 31.6327 28.7377 31.8731 28.0015 32.0796Z" fill="black"/>
<path d="M25.517 9.86527C26.5435 9.86527 27.3647 10.2128 27.8183 10.5841C27.8183 10.5841 27.953 9.75469 28.4133 9.0223L27.5866 9.11821L27.1539 8.17817L26.3228 8.61598L25.517 7.80127L24.7135 8.61598L23.8813 8.17817L23.4497 9.11821L22.623 9.0223C23.0833 9.75469 23.218 10.5841 23.218 10.5841C23.6727 10.2128 24.4917 9.86527 25.517 9.86527ZM23.4122 9.4477L23.6418 9.47254L23.7411 9.25926L24.0304 8.6273L24.5667 8.91056L24.7742 9.01888L24.9398 8.8519L25.5182 8.26508L26.0976 8.8519L26.2632 9.01888L26.4706 8.91056L27.0038 8.6273L27.2963 9.25926L27.3934 9.47254L27.623 9.4477L27.8415 9.42061C27.7411 9.65199 27.6672 9.8709 27.6141 10.0526C27.0358 9.72307 26.283 9.53572 25.516 9.53572C24.7521 9.53572 24.0005 9.72307 23.42 10.0526C23.3659 9.8709 23.2931 9.65083 23.1926 9.42061L23.4122 9.4477Z" fill="black"/>
<path d="M37.5609 20.8715C38.8887 20.8715 39.3323 19.4902 39.3511 19.4316L39.499 18.9452L39.0013 18.961H38.999C38.8235 18.961 37.3589 18.9215 36.3202 17.5718L36.222 17.4465C35.5432 16.5641 34.8997 15.7256 33.7497 15.343C33.7828 15.3125 33.8303 15.2742 33.8954 15.2313C34.5057 14.8205 34.8611 14.3217 34.9505 13.7428C35.0808 12.8716 34.5377 12.1776 34.5134 12.1493L34.1437 11.6822L33.913 12.2363C33.8976 12.2712 33.5091 13.1583 32.6923 13.1583H32.6316C32.5753 13.1548 32.5223 13.1526 32.4693 13.1481C32.498 12.752 32.4274 12.1392 31.8844 11.5648C31.232 10.873 30.4308 10.7692 30.0113 10.7692C29.7873 10.7692 29.6382 10.7974 29.6228 10.7997L29.0643 10.9125L29.4086 11.3763C29.6791 11.7341 29.9241 12.3943 29.6338 12.7396C29.5411 12.849 29.3502 12.9382 29.1669 13.0273C28.7905 13.2045 28.2773 13.4505 28.2773 14.078C28.2773 14.4842 28.5853 14.9085 29.1438 15.2697C30.7971 16.3327 31.817 17.442 32.2574 18.6665C32.9384 20.5499 32.0499 21.6242 31.1868 22.1896L30.7994 22.4447L31.1382 22.7629C31.1835 22.8035 31.5985 23.1771 32.211 23.2312C32.3269 23.2391 32.4384 23.2459 32.5422 23.2459C32.9351 23.2459 33.2696 23.1827 33.5411 23.098C33.466 23.2323 33.3744 23.3689 33.2585 23.5065C32.7651 24.0911 32.1581 24.3574 31.285 24.371L30.9605 24.3766L30.9352 24.7095C30.9318 24.7761 30.9075 25.3934 31.4793 25.9181C31.5664 25.9994 31.6724 26.066 31.7828 26.1213C31.3954 26.4779 31.0014 27.0986 30.9252 28.1627C30.8612 29.0508 30.6537 29.3792 30.6515 29.3826L30.2927 29.9423L30.9407 29.9514C32.0113 29.9514 32.8313 29.649 33.3998 29.0508C33.7353 28.6965 33.9274 28.297 34.041 27.9427C34.2276 28.1052 34.4682 28.2474 34.7817 28.323C34.9009 28.3512 35.0311 28.367 35.1713 28.367C35.4737 28.367 35.7264 28.3015 35.7552 28.2948L36.1691 28.1819L35.9858 27.7869C35.9726 27.7553 35.6272 26.9631 35.9991 25.8324C36.1592 25.3437 36.2408 24.9059 36.2805 24.5651C36.541 24.7039 36.8898 24.819 37.3412 24.8201C38.3655 24.8201 38.817 24.038 38.8379 24.0054L39.0399 23.6465L38.6657 23.4885C37.445 22.9705 37.1746 21.5791 37.1205 20.8253C37.2309 20.8467 37.3566 20.867 37.4991 20.8715H37.5609ZM38.5288 23.8214C38.5288 23.8214 38.1712 24.4567 37.3512 24.4567H37.3412C36.3567 24.4511 35.9593 23.8372 35.9593 23.8372C35.9593 23.8372 36.0167 24.6362 35.6613 25.7138C35.2342 27.0128 35.6646 27.9415 35.6646 27.9415C35.6646 27.9415 35.4351 28.0047 35.1702 28.0047C35.0687 28.0047 34.9627 27.9946 34.8634 27.9675C34.0411 27.7677 33.8358 27.0026 33.8358 27.0026C33.8358 27.0026 33.9119 29.5881 30.9638 29.5881H30.9407C30.9407 29.5881 31.2 29.2269 31.2773 28.1875C31.4175 26.2691 32.6879 26.0062 32.6879 26.0062C32.6879 26.0062 32.0102 25.9193 31.7166 25.6496C31.2575 25.2241 31.2894 24.7321 31.2894 24.7321C32.3269 24.7174 33.0058 24.3563 33.5234 23.7435C34.0841 23.08 34.1768 22.3657 34.1768 22.3657C34.1768 22.3657 33.6194 22.8825 32.541 22.8825C32.4461 22.8825 32.3446 22.878 32.2409 22.8678C31.731 22.8261 31.3778 22.4943 31.3778 22.4943C32.5002 21.7585 33.2883 20.4743 32.5896 18.54C32.0301 16.9906 30.6857 15.8327 29.3325 14.9604C28.8822 14.6727 28.6316 14.3533 28.6316 14.078C28.6316 13.4302 29.5322 13.4099 29.902 12.9743C30.3281 12.4687 30.061 11.6483 29.6912 11.1552C29.6912 11.1552 29.816 11.1292 30.0124 11.1292C30.402 11.1292 31.0764 11.2296 31.6305 11.8165C32.3667 12.5951 32.061 13.4426 32.061 13.4426L32.2585 13.4821C32.3766 13.5081 32.4936 13.5126 32.6151 13.5182C32.6416 13.5182 32.668 13.5194 32.6945 13.5194C33.764 13.5194 34.2419 12.3762 34.2419 12.3762C34.2419 12.3762 35.3788 13.806 33.7055 14.9255C33.4174 15.1173 33.2906 15.2945 33.3236 15.4841L33.3501 15.6082L33.4693 15.6296C34.6823 15.9659 35.296 16.8213 36.0455 17.7941C37.1834 19.2736 38.7938 19.321 38.9924 19.321H39.0134C39.0134 19.321 38.6459 20.507 37.5631 20.507C37.5454 20.507 37.53 20.507 37.5112 20.5059C37.0134 20.4878 36.7584 20.2926 36.7584 20.2926C36.7584 20.2926 36.5631 22.9863 38.5288 23.8214Z" fill="black"/>
<path d="M35.2287 15.4919C35.7243 15.7616 36.0123 16.1227 36.2651 16.4432C36.5134 16.7558 36.7496 17.0572 37.1182 17.1824C37.2496 17.2287 37.3887 17.2501 37.53 17.2501C38.0841 17.2501 38.6403 16.9036 38.8512 16.424L39.0631 15.9433L38.5498 15.9117C38.5256 15.9106 37.8655 15.8496 37.1304 15.0812C36.8279 14.7663 36.4627 14.6004 36.0686 14.6004C35.5874 14.6004 35.2309 14.8464 35.1912 14.8712L34.7188 15.2109L35.2287 15.4919ZM36.0697 14.9637C36.317 14.9637 36.605 15.0495 36.8776 15.3373C37.733 16.2254 38.5288 16.2751 38.5288 16.2751C38.3842 16.6024 37.9649 16.8901 37.531 16.8901C37.4306 16.8901 37.3302 16.8743 37.2298 16.8393C36.6415 16.6362 36.4306 15.7334 35.3964 15.1714C35.3964 15.1714 35.6856 14.9637 36.0697 14.9637Z" fill="black"/>
<path d="M35.4598 20.287V20.3049C35.1618 17.8471 33.4157 16.072 31.4731 14.992C31.2932 14.8939 31.1276 14.8104 30.9665 14.7302C31.5581 14.8239 32.5106 14.8352 33.2457 14.1829C33.2457 14.1829 32.121 15.0293 29.8164 14.2608C30.4544 14.684 31.6938 15.281 32.8252 16.2481C35.6541 18.7894 33.6298 21.2687 33.6298 21.2687C34.6464 20.1842 34.6883 19.0219 34.3891 18.0728C34.9245 18.9835 35.2667 20.0895 35.2137 21.4527C35.1353 23.4061 34.0857 25.0955 32.9808 26.4531C32.4499 27.112 32.3307 27.9212 32.3307 27.9212C32.3307 27.9212 32.5448 27.2069 33.1596 26.4722C34.3439 25.0548 35.356 23.5822 35.4885 21.4605C35.611 21.8454 36.1155 22.9163 36.9156 23.3192C36.9178 23.3204 35.9123 22.7008 35.4598 20.287Z" fill="black"/>
<path d="M20.3841 29.3813C20.3829 29.378 20.1777 29.0495 20.1115 28.1614C20.0341 27.0972 19.6412 26.4766 19.2527 26.12C19.3653 26.0658 19.4691 25.9992 19.5562 25.9168C20.1269 25.3921 20.1026 24.7748 20.0993 24.7082L20.0773 24.3753L19.7505 24.3697C18.8796 24.355 18.2715 24.0886 17.7781 23.5052C17.6634 23.3676 17.5706 23.231 17.4955 23.0967C17.7671 23.1813 18.0993 23.2445 18.4933 23.2445C18.5993 23.2445 18.7086 23.2378 18.8245 23.2299C19.437 23.1757 19.8521 22.8033 19.8984 22.7615L20.2373 22.4433L19.8498 22.1882C18.9834 21.6218 18.0982 20.5475 18.7781 18.6651C19.2185 17.4407 20.2373 16.3314 21.8928 15.2683C22.4513 14.9072 22.7571 14.4829 22.7571 14.0766C22.7571 13.4492 22.2449 13.2021 21.8686 13.0261C21.6854 12.9369 21.4944 12.8477 21.4017 12.7383C21.1103 12.3941 21.3564 11.7328 21.6258 11.375L21.9723 10.9112L21.4117 10.7983C21.3951 10.7961 21.2483 10.7679 21.0231 10.7679C20.6037 10.7679 19.8046 10.8717 19.1512 11.5635C18.607 12.139 18.5353 12.7518 18.5629 13.1468C18.5099 13.1513 18.457 13.1536 18.4017 13.1569H18.3422C17.5232 13.1569 17.1358 12.2699 17.1203 12.2349L16.8896 11.6808L16.5165 12.1481C16.4956 12.1763 15.9503 12.8714 16.0828 13.7415C16.1711 14.3204 16.5265 14.8192 17.1368 15.23C17.2031 15.2729 17.2494 15.3112 17.2826 15.3417C16.1335 15.7242 15.4912 16.5639 14.8124 17.4463L14.7142 17.5716C13.6767 18.9212 12.2087 18.9608 12.0332 18.9608L11.5332 18.945L11.6855 19.4314C11.7031 19.49 12.1457 20.8713 13.4747 20.8713L13.5387 20.8691C13.6788 20.8646 13.8047 20.8454 13.9173 20.8228C13.862 21.5755 13.5917 22.967 12.3698 23.4861L11.9968 23.644L12.1988 24.0029C12.2186 24.0356 12.6712 24.8177 13.6976 24.8177C14.1457 24.8165 14.4945 24.7014 14.7561 24.5626C14.7958 24.9035 14.8775 25.3413 15.0375 25.8299C15.4095 26.9607 15.063 27.7529 15.0497 27.7845L14.8665 28.1795L15.2815 28.2923C15.309 28.299 15.564 28.3646 15.8653 28.3646C16.0066 28.3646 16.1369 28.3487 16.2539 28.3205C16.5684 28.2449 16.8112 28.1027 16.9956 27.9402C17.1082 28.2946 17.3014 28.6941 17.6357 29.0484C18.2053 29.6465 19.0242 29.9489 20.0949 29.9489L20.7439 29.9399L20.3841 29.3813ZM20.0706 29.5878C17.1225 29.5878 17.1976 27.0024 17.1976 27.0024C17.1976 27.0024 16.9923 27.7675 16.17 27.9673C16.0717 27.9944 15.9669 28.0045 15.8643 28.0045C15.5994 28.0045 15.3709 27.9414 15.3709 27.9414C15.3709 27.9414 15.7992 27.0126 15.372 25.7137C15.0188 24.6359 15.0762 23.837 15.0762 23.837C15.0762 23.837 14.6799 24.4509 13.6943 24.4566H13.6844C12.8643 24.4566 12.5067 23.8212 12.5067 23.8212C14.4713 22.9872 14.2782 20.2947 14.2782 20.2947C14.2782 20.2947 14.0232 20.4887 13.5243 20.5079C13.5067 20.509 13.4901 20.509 13.4725 20.509C12.3886 20.509 12.0221 19.323 12.0221 19.323H12.0442C12.244 19.323 13.8522 19.2757 14.9901 17.7962C15.7395 16.8234 16.3543 15.9692 17.5652 15.6317L17.6866 15.6103L17.713 15.4862C17.7461 15.2966 17.6203 15.1194 17.3323 14.9275C15.6589 13.8069 16.7958 12.3783 16.7958 12.3783C16.7958 12.3783 17.2715 13.5203 18.3433 13.5203C18.3697 13.5203 18.394 13.5192 18.4216 13.5192C18.5419 13.5124 18.6611 13.5079 18.7781 13.4819L18.9757 13.4424C18.9757 13.4424 18.6699 12.5949 19.4072 11.8162C19.9613 11.2283 20.6358 11.129 21.0242 11.129C21.2218 11.129 21.3443 11.155 21.3443 11.155C20.9756 11.6493 20.7086 12.4686 21.1346 12.9741C21.5032 13.4086 22.4028 13.43 22.4028 14.0778C22.4028 14.352 22.1522 14.6725 21.7019 14.9603C20.3476 15.8326 19.0033 16.9904 18.4448 18.5399C17.7472 20.4741 18.5342 21.7572 19.6589 22.4941C19.6589 22.4941 19.3057 22.8259 18.7947 22.8676C18.6909 22.8778 18.5905 22.8823 18.4933 22.8823C17.4161 22.8823 16.8587 22.3654 16.8587 22.3654C16.8587 22.3654 16.9514 23.0798 17.5088 23.7433C18.0298 24.3561 18.7086 24.7173 19.7461 24.7319C19.7461 24.7319 19.7792 25.2239 19.3201 25.6494C19.0254 25.9179 18.3476 26.006 18.3476 26.006C18.3476 26.006 19.6192 26.2689 19.7582 28.1874C19.8344 29.2267 20.0915 29.5878 20.0915 29.5878H20.0706Z" fill="black"/>
<path d="M13.5035 17.2513C13.6459 17.2513 13.785 17.2299 13.9164 17.1837C14.2872 17.0584 14.5223 16.757 14.7706 16.4445C15.0245 16.124 15.3103 15.7629 15.8059 15.4932L16.3158 15.2133L15.8424 14.8736C15.8026 14.8477 15.4472 14.6028 14.967 14.6028C14.5719 14.6028 14.2055 14.7676 13.9041 15.0835C13.1691 15.8509 12.5102 15.913 12.4859 15.9141L11.9727 15.9446L12.1834 16.4264C12.3954 16.9038 12.9505 17.2513 13.5035 17.2513ZM14.157 15.3386C14.4307 15.0508 14.7187 14.9651 14.967 14.9651C15.3489 14.9651 15.6382 15.1727 15.6382 15.1727C14.605 15.7358 14.3931 16.6375 13.8026 16.8406C13.7055 16.8756 13.604 16.8914 13.5035 16.8914C13.0697 16.8914 12.6503 16.6048 12.5068 16.2763C12.5068 16.2752 13.3015 16.2256 14.157 15.3386Z" fill="black"/>
<path d="M15.8203 21.4538C15.765 20.0906 16.1072 18.9847 16.6436 18.074C16.3445 19.023 16.3854 20.1854 17.403 21.2698C17.403 21.2698 15.3788 18.7905 18.2088 16.2492C19.3412 15.2821 20.5796 14.6851 21.2164 14.2619C18.913 15.0304 17.7883 14.184 17.7883 14.184C18.5233 14.8363 19.4759 14.825 20.0675 14.7302C19.9074 14.8104 19.7397 14.8938 19.5619 14.9921C17.6172 16.072 15.8722 17.8471 15.573 20.305V20.2858C15.1216 22.6997 14.1172 23.3192 14.1172 23.3192C14.9164 22.9163 15.4196 21.8465 15.5421 21.4605C15.6757 23.5821 16.6878 25.0548 17.8721 26.4722C18.4869 27.2068 18.7032 27.9212 18.7032 27.9212C18.7032 27.9212 18.5829 27.1121 18.0498 26.453C16.9472 25.0977 15.8975 23.4072 15.8203 21.4538Z" fill="black"/>
<path d="M24.8516 16.4805V16.968C25.0161 16.7637 25.334 16.8055 25.334 16.8055V17.5085C25.334 17.5085 25.3229 17.8539 25.2026 18.004H25.5469H25.8902C25.7721 17.8551 25.76 17.5085 25.76 17.5085V16.8055C25.76 16.8055 26.0778 16.7637 26.2412 16.968V16.4805H25.5469H24.8516Z" fill="black"/>
<path d="M24.5564 13.5892C24.7761 13.7676 24.903 13.7969 24.9074 13.8003L24.9935 13.8409V13.3816L24.1855 13.0341C24.1855 13.0352 24.1933 13.3004 24.5564 13.5892Z" fill="black"/>
<path d="M26.4789 13.5892C26.8443 13.3004 26.8509 13.0341 26.8509 13.0341L26.043 13.3816V13.8409L26.128 13.8003C26.1335 13.7969 26.2593 13.7676 26.4789 13.5892Z" fill="black"/>
<path d="M27.933 11.7194C27.933 11.0231 26.7862 10.3968 25.5202 10.3968H25.5191H25.5158H25.5125C24.2465 10.3968 23.0997 11.0231 23.0997 11.7194L23.1251 11.8909L23.6306 14.8577L23.1229 15.159L21.8095 15.9433H21.8139C21.8139 15.9433 21.5181 16.098 21.3812 16.1939C20.8812 16.5493 20.7752 17.0673 21.0655 17.2817C21.1373 16.8597 21.4639 16.4173 22.0754 16.4173C22.5159 16.4173 22.8514 16.6498 23.1229 16.9985C23.1925 17.0865 23.2587 17.1801 23.3205 17.2817C23.3966 17.4092 23.4728 17.521 23.549 17.6293H20.166C20.4143 18.1405 20.6505 18.6822 20.6505 19.2701V26.9258C20.6505 28.7788 22.0445 29.6636 23.5523 29.6636C24.7178 29.6636 24.8745 29.6094 25.518 30.264C26.1582 29.6083 26.3149 29.6636 27.4815 29.6636C28.9904 29.6636 30.3821 28.7788 30.3821 26.9258V19.2701C30.3821 18.6822 30.6184 18.1405 30.8678 17.6293H27.4838C27.5588 17.5221 27.6349 17.4092 27.7111 17.2817C27.774 17.1801 27.8392 17.0865 27.9076 16.9985C28.1813 16.6486 28.5157 16.4173 28.9562 16.4173C29.5676 16.4173 29.8932 16.8585 29.9661 17.2817C30.2564 17.0673 30.1515 16.5493 29.6482 16.1939C29.5135 16.098 29.2177 15.9433 29.2177 15.9433H29.2221L27.9087 15.159L27.4032 14.8577L27.9087 11.8909L27.933 11.7194ZM23.5975 12.0647L25.3745 12.6809V15.5348L24.0666 14.8296L23.5975 12.0647ZM23.9651 18.127C24.2564 18.4237 24.5423 18.6078 24.8139 18.7093C24.7785 18.8526 24.7321 19.1483 24.8634 19.4428C24.9706 19.6797 25.1648 19.8626 25.4441 19.9845C25.475 20.2779 25.656 20.7192 26.1582 20.9144C25.9385 21.1412 25.7244 21.3545 25.6372 21.4414L23.6008 21.4086C23.5544 21.3849 23.4761 21.3319 23.4408 21.2563C23.4363 21.2461 23.4297 21.2405 23.4264 21.2292L23.7587 21.2845C23.7664 21.2856 23.773 21.2856 23.7796 21.2856C23.8437 21.2856 23.8999 21.2405 23.911 21.1728C23.922 21.0972 23.8723 21.0284 23.8006 21.0171L23.3922 20.9516L23.8458 19.3503L23.4165 18.426L22.7278 19.1708L22.6858 20.8365L22.2233 20.762C22.1516 20.7473 22.0832 20.8015 22.071 20.8748C22.06 20.9482 22.1085 21.0171 22.1814 21.0306L22.3757 21.061C22.3061 21.1017 22.2609 21.1333 22.2553 21.1378L22.2156 21.166L22.2046 21.2157C22.092 21.6829 22.347 22.1263 22.6218 22.3249L22.6118 22.3837C22.6008 22.4559 22.6163 22.5259 22.6582 22.5846C22.6979 22.6444 22.7597 22.6805 22.8282 22.6929C22.8425 22.6951 22.858 22.6962 22.8712 22.6962C22.9905 22.6962 23.0942 22.6116 23.124 22.4886C23.2267 22.5011 23.3205 22.5033 23.3844 22.5033H23.4386L26.1107 22.9964L26.1559 22.966C26.369 22.8136 27.1802 22.2088 27.4462 22.009C27.5191 22.0734 27.6007 22.132 27.7001 22.1805C27.614 22.4762 27.6084 22.931 27.9495 23.2899H21.1395V19.2712C21.1395 18.8819 21.028 18.4903 20.8966 18.1292H23.9651V18.127ZM27.2674 21.8036C26.997 22.0067 26.3017 22.5259 26.05 22.7064L23.6218 22.2607C23.6273 22.2381 23.6328 22.2166 23.6383 22.1941C23.6704 22.0654 23.7024 21.8894 23.7046 21.6829L25.7454 21.7167L25.784 21.6761C25.8149 21.6445 26.4617 21.0058 26.7917 20.6379C26.8701 20.7383 26.9683 20.8343 27.0964 20.9189C27.0522 21.1626 27.0709 21.5102 27.2674 21.8036ZM23.2024 21.3737C23.2597 21.4967 23.3635 21.5791 23.4352 21.6253C23.4331 21.7404 23.422 21.9198 23.3922 22.0778C23.3856 22.1129 23.3767 22.1456 23.3668 22.1783C23.3613 22.1986 23.3558 22.2155 23.3514 22.229C23.2443 22.229 23.0335 22.2155 22.8613 22.1512C22.6704 22.0789 22.3856 21.7212 22.4518 21.3274C22.5346 21.2755 22.7255 21.166 22.9043 21.166C23.0423 21.1649 23.1362 21.2314 23.2024 21.3737ZM22.9496 20.8783L22.9905 19.2792L23.3414 18.8989L23.5622 19.3706L23.1273 20.9053L22.9496 20.8783ZM27.2453 29.1682C27.1129 29.1682 26.9904 29.1705 26.88 29.1749L27.1691 28.2552C27.2144 28.1277 26.9859 27.9641 26.8922 27.8207C27.0345 27.9122 27.4032 28.1119 27.5809 28.192C27.5621 28.2214 27.2453 29.1682 27.2453 29.1682ZM28.1526 28.1232L27.9639 29.1298C27.8436 29.1467 27.7155 29.1558 27.5842 29.1614L27.7829 28.1931C27.8425 27.9054 27.0864 27.8163 26.7134 27.2509C26.5312 27.4608 26.188 27.5228 25.8436 27.5228C25.5291 27.5228 25.2145 27.4709 25.0235 27.4326C24.975 27.4246 24.9286 27.419 24.8834 27.419C24.773 27.419 24.6725 27.454 24.603 27.5736L24.5478 27.6685L23.5181 27.4202L23.262 27.8534C23.2255 27.9235 23.2234 27.9833 23.2818 28.0487L23.3514 28.1266C23.3039 28.2801 23.0898 28.5114 23.0898 28.5114L22.9364 28.3162C22.815 28.1774 22.8348 27.9246 22.9617 27.6899L23.3701 26.9846L24.2421 27.1132L24.1063 26.7972C23.9242 26.3797 24.2013 25.8482 24.231 25.5424C24.2211 25.6349 24.1383 25.6552 24.0412 25.6552C23.9529 25.6552 23.8547 25.6383 23.7896 25.6383C23.7642 25.6383 23.7421 25.6405 23.7299 25.6495L23.4937 25.7962L23.3072 25.6281C23.2852 25.5954 23.2774 25.5198 23.3326 25.4633L23.7642 24.9691L23.2543 24.3608L23.9684 24.7276L24.1858 24.4579C24.2454 24.5177 24.22 24.6745 24.22 24.6745C24.443 24.6802 25.0677 25.0334 25.1008 25.8572C25.103 25.882 25.103 25.9102 25.103 25.9373C25.103 25.9373 25.1086 25.9475 25.1195 25.9644C25.1637 26.0265 25.2851 26.1856 25.4396 26.2002L26.4264 26.2996H26.4308C26.539 26.2996 26.7542 26.1698 27.0301 26.1698C27.1802 26.1698 27.348 26.2093 27.5268 26.3244C27.5268 26.3244 27.6162 26.2522 27.7619 26.2443C27.7729 26.2431 27.7851 26.2431 27.7961 26.2431C28.2387 26.2431 28.4219 26.6516 28.6592 26.9913C28.8381 27.2497 29.0764 27.6334 29.0764 27.6334C28.9881 27.7406 28.9065 27.7993 28.7696 27.7993C28.7321 27.7993 28.689 27.7959 28.6427 27.7869C28.1681 27.6977 28.0996 26.7001 27.8292 26.6212C27.8149 26.6166 27.7994 26.6155 27.7862 26.6155C27.699 26.6155 27.6604 26.6945 27.6604 26.6945C27.784 27.0342 27.7122 27.1719 27.8447 27.4337C27.944 27.6278 28.1206 27.788 28.1934 27.8636C28.1934 27.8659 28.1736 28.0126 28.1526 28.1232ZM22.8536 27.1707L22.8988 27.287C22.869 27.3886 22.5268 27.533 22.5268 27.533L22.4529 27.3683C22.3746 27.1922 22.3911 26.8954 22.6295 26.7137L23.1836 26.3684L23.7708 26.4959C23.7598 26.6866 23.8712 26.8288 23.8712 26.8288L23.2553 26.7081L22.8867 26.9688C22.8249 27.0127 22.8205 27.0952 22.8536 27.1707ZM28.2453 29.0745L28.4142 28.174C28.423 28.1209 28.4341 28.0589 28.4418 28.007C28.4893 28.0273 28.54 28.0442 28.5952 28.0544C28.6581 28.0667 28.7166 28.0724 28.7696 28.0724C29.0278 28.0724 29.178 27.9336 29.2784 27.8151L29.4087 27.6605L29.3027 27.4913C29.2928 27.4743 29.0588 27.0951 28.8778 26.8355C28.8425 26.7848 28.8082 26.734 28.774 26.6787C28.5687 26.365 28.3115 25.9712 27.7961 25.9712L27.7498 25.9723C27.6648 25.9779 27.5919 25.9948 27.5334 26.0174C27.3711 25.9396 27.2045 25.9001 27.0312 25.9001C26.8182 25.9001 26.6383 25.9599 26.5191 26.0017C26.4849 26.0118 26.454 26.0231 26.4297 26.0276L25.4661 25.9305C25.454 25.9283 25.4142 25.9046 25.3668 25.8459V25.8414L25.5754 25.7556C25.5169 25.0458 24.8502 24.609 24.4783 24.4612C24.4617 24.3901 24.4286 24.319 24.3701 24.2615L24.1626 24.0606L23.9805 24.2841L23.8911 24.398L22.5423 23.8315L23.4198 24.9577L23.0732 25.4938C22.9463 25.6314 23.0865 25.7691 23.0865 25.7691L23.444 26.0208L23.8149 25.8797C23.8282 25.8797 23.8393 25.8831 23.8514 25.8843C23.8337 25.9418 23.8105 26.1675 23.7951 26.2307L23.1516 26.1009L22.475 26.4914C22.1273 26.7521 22.0798 27.1843 22.209 27.4799L22.2841 27.6481L22.3911 27.8851L22.6273 27.7846C22.6306 27.7835 22.6339 27.7824 22.6361 27.7801C22.5512 28.0577 22.5854 28.3218 22.7377 28.4956L22.8812 28.6807L23.0721 28.9278L23.2818 28.6976C23.3436 28.6344 23.5434 28.4053 23.6052 28.209L23.6505 28.0589L23.5478 27.9437L23.5313 27.9235L23.646 27.7294L24.486 27.9313L24.6747 27.9754L24.7751 27.8061L24.8304 27.7136C24.8403 27.6944 24.8436 27.691 24.8822 27.691C24.9121 27.691 24.9418 27.6944 24.9739 27.7012C25.2906 27.7621 25.5832 27.7925 25.8425 27.7925C26.0941 27.7925 26.2442 27.7824 26.4242 27.7214C26.4242 27.7214 26.8756 28.2451 26.8911 28.2654L26.6152 29.1365L26.6029 29.1896C26.0798 29.2325 25.8248 29.3499 25.5169 29.6647C25.0698 29.2111 24.7531 29.1637 23.5511 29.1637C22.1129 29.1637 21.1383 28.3015 21.1383 26.9247V23.5584H29.8932L29.8954 26.9247C29.8965 28.042 29.2553 28.8206 28.2453 29.0745ZM30.1383 18.127C30.0047 18.4881 29.8932 18.8797 29.8932 19.2691L29.8943 21.781C29.3811 21.693 29.3204 21.1277 29.3182 21.1028L29.3083 20.9877L29.1979 20.9776C28.9749 20.9561 28.827 20.8591 28.7022 20.7349C28.4507 20.4776 28.4495 20.0601 28.4507 20.0567C28.4474 20.0781 28.1736 20.4697 28.4915 20.8974C28.625 21.078 28.8181 21.1886 29.0687 21.2326C29.1272 21.5463 29.3557 21.9887 29.8943 22.0564V23.2865H28.38C27.6813 22.8892 27.9772 22.1895 27.9914 22.1603L28.0511 22.0271L27.9175 21.9752C27.1614 21.6886 27.369 20.9166 27.38 20.8839L27.4109 20.7711L27.3083 20.7214C26.6835 20.4257 26.7685 19.6279 26.7762 19.5952C26.5842 19.7543 26.5147 20.0793 26.6471 20.3976C26.5754 20.481 26.4794 20.5826 26.3745 20.6932C25.7277 20.525 25.7079 19.9168 25.7079 19.8886L25.7067 19.7949L25.6218 19.7611C25.369 19.6652 25.1957 19.5218 25.1107 19.3288C25.0147 19.1155 25.0489 18.8921 25.0754 18.7848C25.1494 18.8018 25.2233 18.8142 25.2939 18.8198C25.3668 18.8278 25.4419 18.8323 25.5169 18.8323H25.5213H25.5268C25.6019 18.8323 25.6758 18.8278 25.7487 18.8198C26.1515 18.7793 26.6029 18.6021 27.0731 18.1259H30.1383V18.127ZM27.7785 15.5878L28.3767 15.9433H28.3855L28.5356 16.0325C28.1978 16.1284 27.9396 16.3011 27.7232 16.5279C27.7155 16.5347 27.7078 16.5437 27.7001 16.5516C27.6504 16.6058 27.6007 16.6644 27.5544 16.7243C27.5456 16.7355 27.5367 16.7479 27.5268 16.7604C27.4805 16.8213 27.4374 16.8834 27.3955 16.9488C27.3888 16.9601 27.3811 16.9714 27.3734 16.9815C27.3237 17.0571 27.2763 17.1384 27.2288 17.2219C26.8027 17.9724 26.1229 18.4204 25.518 18.4216C24.9143 18.4204 24.2344 17.9724 23.8084 17.2219C23.7619 17.1407 23.7156 17.0617 23.666 16.985C23.656 16.9703 23.6472 16.9556 23.6383 16.9432C23.5964 16.8811 23.5544 16.8202 23.5114 16.7626C23.5004 16.7469 23.4905 16.7344 23.4794 16.7209C23.4331 16.6633 23.3856 16.6058 23.3381 16.5527C23.3282 16.5448 23.3216 16.5347 23.3117 16.5256C23.0942 16.2988 22.837 16.1273 22.4982 16.0325L22.6505 15.9433H22.6571L23.2553 15.5878L23.8701 15.2279L25.5125 16.1419L25.5158 16.1386L25.5202 16.1419L27.1626 15.2279L27.7785 15.5878ZM26.9683 14.8306L25.6592 15.536V12.6809L27.4352 12.0647L26.9683 14.8306ZM25.5169 12.3672L23.5699 11.5806C23.7355 11.1799 24.4992 10.8391 25.5169 10.838C26.5356 10.8391 27.2994 11.1799 27.4638 11.5806L25.5169 12.3672Z" fill="black"/>
<path d="M3.50226 44.7874V41.2548H5.52891V39.9693H0V41.2548H2.02657V44.7874H3.50226ZM7.54594 42.7731V39.9693H6.11946V44.7874H7.37876L9.83817 41.9836V44.7874H11.2647V39.9693H10.0054L7.54594 42.7731ZM16.0637 42.9958V44.7874H17.4902V39.9693H16.0637V41.7305H13.7715V39.9693H12.345V44.7874H13.7715V42.9958H16.0637ZM21.4629 44.7874C21.7875 44.7874 22.0827 44.7571 22.3582 44.6761C23.096 44.4635 23.5781 43.846 23.5781 43.0059C23.5781 42.2063 23.1648 41.6496 22.5057 41.3965C22.1909 41.2751 21.8171 41.2649 21.4629 41.2649H19.9971V39.9693H18.5706V44.7874H21.4629ZM21.217 42.3986C21.4137 42.3986 21.6006 42.3986 21.7679 42.4594C22.004 42.5403 22.1417 42.7427 22.1417 42.9857C22.1417 43.2388 22.004 43.4513 21.7777 43.5525C21.6203 43.6233 21.4629 43.6233 21.217 43.6233H19.9971V42.3986H21.217ZM26.1357 42.9654L27.8377 44.7874H29.7364L27.3655 42.2771L29.6478 39.9693H27.8574L26.1357 41.7812H25.7422V39.9693H24.3157V44.7874H25.7422V42.9654H26.1357ZM32.6717 39.8377C30.7533 39.8377 29.6022 40.9511 29.6022 42.3885C29.6022 43.8259 30.7533 44.9393 32.6717 44.9393C34.5802 44.9393 35.7312 43.8259 35.7312 42.3885C35.7312 40.9511 34.5802 39.8377 32.6717 39.8377ZM32.6717 43.7651C31.7174 43.7651 31.1074 43.178 31.1074 42.3885C31.1074 41.5989 31.7174 41.022 32.6717 41.022C33.6161 41.022 34.2359 41.5989 34.2359 42.3885C34.2359 43.178 33.6161 43.7651 32.6717 43.7651ZM40.4819 39.696H39.0555V40.1818C37.265 40.2223 36.1926 41.0017 36.1926 42.3783C36.1926 43.7549 37.265 44.4736 39.0555 44.5142V45H40.4819V44.5142C42.2823 44.4736 43.3546 43.7549 43.3546 42.3783C43.3546 41.0017 42.2823 40.2223 40.4819 40.1818V39.696ZM39.0555 43.4817C38.0717 43.4412 37.6388 43.0262 37.6388 42.3783C37.6388 41.7305 38.0717 41.2649 39.0555 41.2244V43.4817ZM40.4819 41.2244C41.4756 41.2649 41.8986 41.7305 41.8986 42.3783C41.8986 43.0262 41.4756 43.4412 40.4819 43.4817V41.2244ZM48.1005 39.696H46.674V40.1818C44.8836 40.2223 43.8112 41.0017 43.8112 42.3783C43.8112 43.7549 44.8836 44.4736 46.674 44.5142V45H48.1005V44.5142C49.9006 44.4736 50.9732 43.7549 50.9732 42.3783C50.9732 41.0017 49.9006 40.2223 48.1005 40.1818V39.696ZM46.674 43.4817C45.6902 43.4412 45.2574 43.0262 45.2574 42.3783C45.2574 41.7305 45.6902 41.2649 46.674 41.2244V43.4817ZM48.1005 41.2244C49.0943 41.2649 49.5172 41.7305 49.5172 42.3783C49.5172 43.0262 49.0943 43.4412 48.1005 43.4817V41.2244Z" fill="black"/>
</g>
<defs>
<clipPath id="clip0_366_7">
<rect width="51" height="38" fill="white" transform="translate(0 7)"/>
</clipPath>
</defs>
</svg>
