<svg width="51" height="51" viewBox="0 0 51 51" fill="none" xmlns="http://www.w3.org/2000/svg">
<g clip-path="url(#clip0_444_5855)">
<path d="M13.2318 26.7625V26.8336C14.0057 27.1188 14.7457 27.6179 15.1327 27.9386C16.329 28.937 16.8578 30.2553 16.8578 31.9662C16.8578 34.7835 15.3793 36.8143 12.9497 37.4564C12.2098 37.6705 11.4358 37.7416 9.99281 37.7416H2.63672V17.1373H9.14942C10.4876 17.1373 11.4018 17.2084 12.2112 17.4217C14.5699 18.0639 16.1193 19.7036 16.1193 22.3054C16.1193 23.6963 15.6267 24.8732 14.8173 25.6568C14.4651 26.013 13.9725 26.4411 13.2332 26.7618L13.2318 26.7625ZM6.71982 28.937V34.3554H9.5364C10.3805 34.3554 11.1559 34.2843 11.7186 33.7496C12.2821 33.2148 12.528 32.5372 12.528 31.6462C12.528 30.97 12.3515 30.3279 12 29.8642C11.4018 29.1155 10.6619 28.937 9.39535 28.937H6.7191H6.71982ZM6.68365 25.3716H8.97221C9.676 25.3716 10.0282 25.3716 10.3798 25.265C11.3309 24.9791 11.9291 24.1251 11.9291 22.9483C11.9291 21.5581 11.2955 20.9516 10.3798 20.6671C9.99208 20.5598 9.60584 20.5249 8.83117 20.5249H6.68365V25.3724V25.3716ZM22.9828 37.7423V20.5953H17.1044V17.1381H33.439L32.2773 20.5953H27.0666V37.7423H22.9828ZM34.7062 37.7423V17.1381H47.9429L46.7812 20.5953H38.7553V25.159H42.0298C44.6699 25.159 46.0427 25.8012 46.9939 26.6203C47.7338 27.2624 49.0003 28.6874 49.0003 31.5047C49.0003 34.285 47.6984 35.8174 46.6062 36.6025C45.3389 37.4927 44.0015 37.743 41.2898 37.743H34.707H34.7062V37.7423ZM38.7546 34.2836H41.8171C42.9788 34.2836 43.6825 33.9984 44.1751 33.3563C44.421 33.0364 44.7733 32.4646 44.7733 31.3959C44.7733 30.3271 44.421 29.5777 43.7173 29.0429C43.2956 28.723 42.7314 28.5452 41.7809 28.5452H38.7532V34.2836H38.7546Z" fill="black"/>
</g>
<defs>
<clipPath id="clip0_444_5855">
<rect width="51" height="51" fill="white"/>
</clipPath>
</defs>
</svg>
