<svg width="23" height="24" viewBox="0 0 23 24" fill="none" xmlns="http://www.w3.org/2000/svg">
<path d="M0 23.5L1.65153 17.3696C0.319612 14.9815 -0.103551 12.1948 0.459691 9.52087C1.02293 6.84692 2.5348 4.46509 4.71786 2.81244C6.90092 1.15979 9.60874 0.347189 12.3444 0.523741C15.0801 0.700294 17.6602 1.85416 19.6112 3.77361C21.5621 5.69305 22.7532 8.24932 22.9657 10.9733C23.1782 13.6974 22.398 16.4064 20.7682 18.6033C19.1384 20.8003 16.7683 22.3378 14.0929 22.9337C11.4175 23.5296 8.61614 23.144 6.20299 21.8475L0 23.5ZM6.50209 19.5535L6.88571 19.7803C8.63361 20.8128 10.6751 21.2401 12.6921 20.9956C14.7091 20.751 16.5883 19.8483 18.0368 18.4282C19.4853 17.0081 20.4218 15.1503 20.7003 13.1444C20.9788 11.1384 20.5837 9.09699 19.5765 7.33821C18.5694 5.57943 17.0068 4.2021 15.1322 3.42085C13.2576 2.6396 11.1764 2.49831 9.21284 3.01901C7.24929 3.53971 5.51372 4.69315 4.27658 6.29958C3.03945 7.906 2.37025 9.87518 2.37326 11.9002C2.37162 13.5793 2.83755 15.226 3.71919 16.6568L3.95977 17.0521L3.03648 20.4737L6.50209 19.5535Z" fill="#F4EB00"/>
<path fill-rule="evenodd" clip-rule="evenodd" d="M14.9367 13.1224C14.7531 12.9451 14.5381 12.8202 14.3082 12.7574C14.0782 12.6946 13.8393 12.6955 13.6097 12.76C13.2647 12.9317 13.0418 13.5802 12.8188 13.9045C12.7718 13.9822 12.7027 14.0367 12.6246 14.0578C12.5464 14.0789 12.4645 14.065 12.3942 14.0189C11.1311 13.4263 10.0724 12.3396 9.38995 10.9353C9.33175 10.8477 9.3042 10.7364 9.31311 10.6249C9.32202 10.5135 9.36669 10.4105 9.43772 10.3377C9.68636 10.0428 9.86892 9.67763 9.96851 9.27588C9.99062 8.83274 9.90586 8.39133 9.72435 8.00429C9.58402 7.46167 9.31695 6.97851 8.95471 6.6119C8.76787 6.51124 8.56071 6.47749 8.35822 6.51472C8.15572 6.55195 7.96655 6.65857 7.81352 6.82171C7.54784 7.09627 7.33697 7.43872 7.19642 7.82384C7.05587 8.20896 6.98924 8.62694 7.00141 9.04699C7.00223 9.28288 7.02719 9.51776 7.07572 9.74637C7.19898 10.2956 7.38852 10.8204 7.63836 11.3041C7.81861 11.6746 8.01528 12.0332 8.22753 12.3786C8.91731 13.5128 9.78438 14.4758 10.7806 15.2142C11.2805 15.5894 11.8148 15.8945 12.373 16.1234C12.9528 16.4382 13.5929 16.559 14.2254 16.4731C14.5858 16.4077 14.9272 16.2373 15.2197 15.9768C15.5122 15.7162 15.7467 15.3736 15.9027 14.979C15.9943 14.7406 16.0221 14.4741 15.9823 14.216C15.8868 13.6883 15.2976 13.3768 14.9367 13.1224Z" fill="#F4EB00"/>
</svg>
